<?xml version="1.0" encoding="utf-8"?>
<!-- Generator: Adobe Illustrator 16.0.0, SVG Export Plug-In . SVG Version: 6.00 Build 0)  -->
<!DOCTYPE svg PUBLIC "-//W3C//DTD SVG 1.1//EN" "http://www.w3.org/Graphics/SVG/1.1/DTD/svg11.dtd">
<svg version="1.1" id="Capa_1" xmlns="http://www.w3.org/2000/svg" xmlns:xlink="http://www.w3.org/1999/xlink" x="0px" y="0px"
	 width="300px" height="300px" viewBox="0 0 300 300" enable-background="new 0 0 300 300" xml:space="preserve">
<g>
	<path fill="#364D39" d="M214.458,111.456c0.464,0.022,0.71-0.262,0.796-0.748c-0.074-0.395-0.285-0.713-0.754-0.71
		c-0.461,0.003-0.736,0.285-0.732,0.745C213.771,111.169,214.039,111.434,214.458,111.456z"/>
	<path fill="#364D39" d="M146.455,31.653c0.385-0.085,0.7-0.293,0.688-0.77c-0.01-0.422-0.272-0.693-0.694-0.712
		c-0.461-0.019-0.75,0.25-0.766,0.707C145.667,31.342,145.963,31.582,146.455,31.653z"/>
	<path fill="#364D39" d="M152.346,31.628c0.465-0.006,0.691-0.309,0.739-0.807c-0.104-0.379-0.325-0.685-0.798-0.653
		c-0.42,0.032-0.685,0.296-0.682,0.723C151.609,31.354,151.883,31.632,152.346,31.628z"/>
	<path fill="#364D39" d="M220.454,111.472c0.438-0.085,0.723-0.329,0.693-0.792c-0.028-0.42-0.296-0.685-0.722-0.682
		c-0.461,0.003-0.741,0.282-0.735,0.742C219.694,111.201,219.993,111.428,220.454,111.472z"/>
	<path fill="#364D39" d="M81.307,112.954c-0.429-0.016-0.707,0.24-0.744,0.656c-0.044,0.46,0.22,0.76,0.671,0.798
		c0.464,0.041,0.713-0.25,0.801-0.688C81.994,113.27,81.773,112.969,81.307,112.954z"/>
	<path fill="#364D39" d="M87.22,114.412c0.464-0.003,0.69-0.306,0.735-0.761c-0.085-0.438-0.328-0.725-0.794-0.697
		c-0.42,0.028-0.685,0.297-0.681,0.722C86.483,114.137,86.759,114.414,87.22,114.412z"/>
	<path fill="#364D39" d="M131.653,34.609c0.388-0.085,0.704-0.291,0.691-0.77c-0.01-0.426-0.272-0.691-0.694-0.713
		c-0.46-0.019-0.748,0.249-0.766,0.706C130.868,34.3,131.162,34.537,131.653,34.609z"/>
	<path fill="#364D39" d="M137.567,34.6c0.439-0.082,0.726-0.328,0.697-0.792c-0.028-0.419-0.296-0.681-0.723-0.678
		c-0.46,0.003-0.741,0.278-0.735,0.738C136.81,34.332,137.113,34.559,137.567,34.6z"/>
	<path fill="#364D39" d="M143.415,34.583c0.46,0.02,0.75-0.249,0.767-0.709c0.016-0.467-0.278-0.7-0.726-0.767
		c-0.451,0.063-0.739,0.296-0.729,0.763C142.73,34.297,142.992,34.565,143.415,34.583z"/>
	<path fill="#364D39" d="M149.341,34.583c0.463,0.013,0.75-0.255,0.763-0.716c0.009-0.463-0.288-0.697-0.738-0.757
		c-0.448,0.066-0.735,0.306-0.723,0.773C148.657,34.303,148.921,34.571,149.341,34.583z"/>
	<path fill="#364D39" d="M155.242,34.581c0.461,0.041,0.713-0.246,0.801-0.684c-0.041-0.458-0.268-0.751-0.729-0.77
		c-0.428-0.016-0.707,0.24-0.744,0.656C154.523,34.243,154.787,34.546,155.242,34.581z"/>
	<path fill="#364D39" d="M161.203,34.583c0.464,0.009,0.701-0.284,0.757-0.731c-0.065-0.448-0.303-0.735-0.77-0.722
		c-0.425,0.009-0.694,0.274-0.706,0.697C160.468,34.288,160.74,34.571,161.203,34.583z"/>
	<path fill="#364D39" d="M167.107,34.603c0.457-0.048,0.758-0.274,0.758-0.739c0.002-0.46-0.281-0.734-0.742-0.734
		c-0.426,0-0.693,0.265-0.717,0.685C166.379,34.281,166.666,34.521,167.107,34.603z"/>
	<path fill="#364D39" d="M211.51,112.954c-0.427,0.015-0.695,0.28-0.704,0.706c-0.009,0.46,0.262,0.745,0.722,0.751
		c0.467,0.005,0.697-0.291,0.754-0.738C212.213,113.226,211.973,112.938,211.51,112.954z"/>
	<path fill="#364D39" d="M217.445,112.954c-0.426,0.003-0.697,0.268-0.717,0.688c-0.021,0.461,0.246,0.75,0.707,0.77
		c0.463,0.019,0.703-0.275,0.77-0.723C218.146,113.241,217.912,112.947,217.445,112.954z"/>
	<path fill="#364D39" d="M122.706,37.54c0.467,0.019,0.707-0.275,0.772-0.723c-0.061-0.451-0.293-0.738-0.764-0.735
		c-0.425,0.003-0.693,0.268-0.712,0.688C121.98,37.23,122.252,37.521,122.706,37.54z"/>
	<path fill="#364D39" d="M128.657,37.558c0.448-0.066,0.739-0.306,0.726-0.77c-0.013-0.422-0.278-0.69-0.7-0.706
		c-0.461-0.013-0.747,0.258-0.76,0.719C127.913,37.265,128.21,37.499,128.657,37.558z"/>
	<path fill="#364D39" d="M134.637,37.564c0.378-0.101,0.691-0.315,0.662-0.788c-0.022-0.422-0.284-0.688-0.709-0.694
		c-0.463-0.006-0.744,0.268-0.748,0.729C133.839,37.277,134.139,37.508,134.637,37.564z"/>
	<path fill="#364D39" d="M140.479,37.558c0.451-0.057,0.751-0.287,0.744-0.75c-0.006-0.461-0.29-0.735-0.753-0.726
		c-0.423,0.006-0.688,0.274-0.704,0.697C139.747,37.246,140.034,37.485,140.479,37.558z"/>
	<path fill="#364D39" d="M146.393,37.54c0.463,0.015,0.703-0.278,0.772-0.77c-0.085-0.385-0.294-0.7-0.77-0.688
		c-0.426,0.01-0.694,0.271-0.713,0.694C145.664,37.233,145.935,37.523,146.393,37.54z"/>
	<path fill="#364D39" d="M153.078,36.854c-0.041-0.457-0.262-0.754-0.725-0.77c-0.43-0.016-0.707,0.24-0.744,0.656
		c-0.045,0.46,0.217,0.76,0.671,0.798C152.744,37.581,152.99,37.29,153.078,36.854z"/>
	<path fill="#364D39" d="M158.21,37.54c0.468,0.024,0.714-0.262,0.792-0.701c-0.051-0.454-0.277-0.754-0.742-0.757
		c-0.46,0-0.734,0.281-0.734,0.741C157.528,37.252,157.793,37.517,158.21,37.54z"/>
	<path fill="#364D39" d="M164.165,37.54c0.463,0.009,0.696-0.288,0.757-0.732c-0.066-0.448-0.307-0.738-0.773-0.723
		c-0.422,0.01-0.689,0.274-0.706,0.701C163.434,37.243,163.705,37.53,164.165,37.54z"/>
	<path fill="#364D39" d="M170.101,37.558c0.448-0.066,0.734-0.306,0.722-0.77c-0.012-0.422-0.276-0.69-0.699-0.706
		c-0.461-0.013-0.748,0.258-0.761,0.719C169.356,37.265,169.652,37.499,170.101,37.558z"/>
	<path fill="#364D39" d="M176.023,37.54c0.464,0,0.691-0.303,0.738-0.754c-0.078-0.442-0.324-0.729-0.789-0.704
		c-0.422,0.025-0.688,0.29-0.688,0.719C175.285,37.259,175.561,37.543,176.023,37.54z"/>
	<path fill="#364D39" d="M79.077,116.675c-0.044-0.457-0.269-0.75-0.732-0.763c-0.429-0.013-0.704,0.246-0.741,0.659
		c-0.041,0.46,0.224,0.76,0.678,0.794C78.746,117.404,78.992,117.114,79.077,116.675z"/>
	<path fill="#364D39" d="M83.521,116.644c0,0.467,0.303,0.694,0.757,0.741c0.441-0.079,0.725-0.322,0.701-0.789
		c-0.022-0.42-0.291-0.684-0.716-0.684C83.801,115.909,83.518,116.184,83.521,116.644z"/>
	<path fill="#364D39" d="M113.812,40.498c0.466,0.025,0.709-0.262,0.786-0.706c-0.05-0.451-0.277-0.751-0.745-0.751
		c-0.46,0-0.735,0.285-0.732,0.742C113.124,40.21,113.392,40.476,113.812,40.498z"/>
	<path fill="#364D39" d="M119.772,40.523c0.401-0.066,0.719-0.265,0.732-0.738c0.013-0.426-0.243-0.703-0.657-0.741
		c-0.46-0.044-0.763,0.218-0.8,0.672C119.003,40.179,119.294,40.425,119.772,40.523z"/>
	<path fill="#364D39" d="M125.624,40.494c0.46,0.041,0.76-0.224,0.794-0.678c0.034-0.464-0.256-0.709-0.693-0.794
		c-0.458,0.044-0.754,0.268-0.767,0.731C124.951,40.182,125.207,40.46,125.624,40.494z"/>
	<path fill="#364D39" d="M131.622,40.498c0.467-0.003,0.69-0.31,0.742-0.807c-0.104-0.375-0.325-0.685-0.802-0.65
		c-0.418,0.032-0.681,0.297-0.681,0.722C130.884,40.223,131.164,40.504,131.622,40.498z"/>
	<path fill="#364D39" d="M137.501,40.498c0.464,0.019,0.706-0.268,0.782-0.713c-0.057-0.451-0.284-0.748-0.751-0.745
		c-0.46,0.003-0.734,0.287-0.725,0.748C136.81,40.214,137.075,40.479,137.501,40.498z"/>
	<path fill="#364D39" d="M143.43,39.04c-0.425,0.01-0.693,0.275-0.706,0.697c-0.016,0.46,0.255,0.748,0.716,0.76
		c0.463,0.01,0.697-0.284,0.757-0.735C144.131,39.315,143.895,39.028,143.43,39.04z"/>
	<path fill="#364D39" d="M149.303,40.494c0.464,0.041,0.761-0.224,0.799-0.678c0.037-0.464-0.252-0.709-0.695-0.794
		c-0.457,0.044-0.75,0.268-0.766,0.731C148.632,40.182,148.887,40.46,149.303,40.494z"/>
	<path fill="#364D39" d="M155.271,40.498c0.46,0.01,0.743-0.262,0.753-0.722c0.007-0.464-0.293-0.694-0.741-0.75
		c-0.448,0.069-0.732,0.309-0.719,0.776C154.58,40.22,154.845,40.488,155.271,40.498z"/>
	<path fill="#364D39" d="M161.199,40.517c0.453-0.054,0.748-0.284,0.742-0.751c-0.003-0.461-0.287-0.731-0.744-0.726
		c-0.43,0.007-0.694,0.275-0.713,0.694C160.463,40.201,160.749,40.441,161.199,40.517z"/>
	<path fill="#364D39" d="M167.145,39.04c-0.46,0.003-0.74,0.281-0.734,0.739c0.004,0.463,0.307,0.691,0.76,0.734
		c0.441-0.085,0.726-0.329,0.697-0.794C167.836,39.302,167.567,39.037,167.145,39.04z"/>
	<path fill="#364D39" d="M173.118,40.523c0.382-0.101,0.694-0.315,0.669-0.789c-0.025-0.419-0.289-0.688-0.715-0.694
		c-0.461-0.003-0.742,0.268-0.745,0.729C172.324,40.232,172.625,40.463,173.118,40.523z"/>
	<path fill="#364D39" d="M178.944,40.498c0.464,0.016,0.707-0.271,0.78-0.716c-0.061-0.448-0.288-0.748-0.751-0.742
		c-0.462,0.003-0.736,0.291-0.726,0.751C178.254,40.217,178.521,40.482,178.944,40.498z"/>
	<path fill="#364D39" d="M110.891,43.453c0.467,0.003,0.694-0.297,0.753-0.795c-0.101-0.379-0.314-0.688-0.788-0.659
		c-0.423,0.022-0.69,0.284-0.694,0.709C110.156,43.169,110.43,43.45,110.891,43.453z"/>
	<path fill="#364D39" d="M116.824,43.479c0.397-0.07,0.716-0.275,0.716-0.748c0-0.46-0.281-0.734-0.742-0.734
		c-0.426,0-0.694,0.265-0.719,0.684C116.054,43.15,116.34,43.39,116.824,43.479z"/>
	<path fill="#364D39" d="M122.7,43.453c0.46,0.012,0.75-0.256,0.76-0.716c0.01-0.466-0.287-0.7-0.738-0.757
		c-0.448,0.066-0.735,0.303-0.722,0.771C122.012,43.172,122.277,43.44,122.7,43.453z"/>
	<path fill="#364D39" d="M128.647,43.472c0.448-0.063,0.738-0.293,0.732-0.76c-0.006-0.426-0.271-0.694-0.691-0.712
		c-0.461-0.02-0.753,0.249-0.77,0.706C127.907,43.169,128.2,43.406,128.647,43.472z"/>
	<path fill="#364D39" d="M134.534,43.453c0.466,0.022,0.709-0.262,0.785-0.707c-0.047-0.454-0.275-0.75-0.741-0.75
		c-0.46,0-0.735,0.28-0.732,0.741C133.846,43.166,134.111,43.431,134.534,43.453z"/>
	<path fill="#364D39" d="M140.421,43.45c0.464,0.044,0.764-0.218,0.798-0.672c0.041-0.463-0.252-0.712-0.731-0.804
		c-0.397,0.066-0.713,0.265-0.725,0.738C139.75,43.137,140.005,43.412,140.421,43.45z"/>
	<path fill="#364D39" d="M146.396,43.453c0.46,0.003,0.744-0.269,0.748-0.729c0.003-0.467-0.3-0.694-0.748-0.745
		c-0.445,0.076-0.731,0.315-0.71,0.783C145.705,43.185,145.97,43.45,146.396,43.453z"/>
	<path fill="#364D39" d="M152.314,41.996c-0.426,0.006-0.696,0.268-0.712,0.69c-0.02,0.46,0.249,0.748,0.712,0.763
		c0.464,0.016,0.701-0.277,0.764-0.725C153.016,42.276,152.782,41.99,152.314,41.996z"/>
	<path fill="#364D39" d="M158.268,41.996c-0.43-0.013-0.705,0.242-0.739,0.659c-0.044,0.46,0.222,0.757,0.676,0.794
		c0.466,0.038,0.716-0.252,0.798-0.69C158.96,42.305,158.734,42.011,158.268,41.996z"/>
	<path fill="#364D39" d="M164.182,43.453c0.463,0,0.693-0.3,0.74-0.754c-0.082-0.442-0.324-0.726-0.792-0.7
		c-0.419,0.022-0.685,0.29-0.688,0.716C163.445,43.176,163.723,43.453,164.182,43.453z"/>
	<path fill="#364D39" d="M170.088,43.453c0.464,0.006,0.697-0.291,0.754-0.738c-0.072-0.448-0.312-0.732-0.776-0.716
		c-0.425,0.012-0.693,0.277-0.703,0.703C169.356,43.162,169.63,43.447,170.088,43.453z"/>
	<path fill="#364D39" d="M175.999,43.472c0.45-0.054,0.751-0.281,0.743-0.747c-0.002-0.461-0.289-0.732-0.747-0.726
		c-0.429,0.006-0.693,0.271-0.71,0.694C175.268,43.159,175.553,43.396,175.999,43.472z"/>
	<path fill="#364D39" d="M181.979,43.479c0.389-0.089,0.703-0.294,0.69-0.77c-0.009-0.426-0.271-0.694-0.694-0.712
		c-0.46-0.02-0.75,0.249-0.767,0.706C181.193,43.169,181.484,43.406,181.979,43.479z"/>
	<path fill="#364D39" d="M187.87,43.453c0.46-0.003,0.69-0.306,0.737-0.805c-0.105-0.378-0.327-0.684-0.801-0.649
		c-0.42,0.028-0.685,0.296-0.681,0.723C187.126,43.179,187.406,43.459,187.87,43.453z"/>
	<path fill="#364D39" d="M107.917,46.43c0.451-0.057,0.748-0.287,0.742-0.751c-0.006-0.46-0.291-0.732-0.75-0.722
		c-0.425,0.007-0.691,0.275-0.707,0.697C107.182,46.118,107.472,46.354,107.917,46.43z"/>
	<path fill="#364D39" d="M113.853,46.408c0.467,0.003,0.694-0.296,0.748-0.748c-0.076-0.445-0.319-0.732-0.786-0.71
		c-0.422,0.019-0.687,0.288-0.69,0.713C113.118,46.125,113.392,46.408,113.853,46.408z"/>
	<path fill="#364D39" d="M119.766,46.43c0.448-0.063,0.742-0.293,0.735-0.76c-0.004-0.426-0.268-0.697-0.691-0.716
		c-0.46-0.022-0.754,0.247-0.773,0.707C119.022,46.125,119.318,46.361,119.766,46.43z"/>
	<path fill="#364D39" d="M125.705,46.408c0.464-0.003,0.69-0.307,0.735-0.76c-0.085-0.438-0.327-0.726-0.794-0.694
		c-0.422,0.028-0.684,0.296-0.681,0.722C124.964,46.134,125.242,46.415,125.705,46.408z"/>
	<path fill="#364D39" d="M131.616,46.408c0.467,0,0.693-0.302,0.741-0.754c-0.082-0.442-0.325-0.729-0.788-0.7
		c-0.42,0.022-0.685,0.29-0.688,0.719C130.881,46.13,131.158,46.411,131.616,46.408z"/>
	<path fill="#364D39" d="M137.549,46.411c0.422-0.003,0.69-0.268,0.712-0.688c0.022-0.467-0.265-0.709-0.706-0.788
		c-0.452,0.05-0.751,0.277-0.751,0.744C136.804,46.14,137.088,46.415,137.549,46.411z"/>
	<path fill="#364D39" d="M143.434,46.411c0.461,0.003,0.742-0.268,0.745-0.729c0.003-0.467-0.297-0.694-0.749-0.747
		c-0.444,0.075-0.728,0.318-0.708,0.785C142.743,46.14,143.008,46.405,143.434,46.411z"/>
	<path fill="#364D39" d="M149.388,44.951c-0.426-0.012-0.703,0.243-0.741,0.659c-0.043,0.461,0.222,0.76,0.672,0.795
		c0.467,0.038,0.713-0.252,0.802-0.688C150.079,45.266,149.855,44.967,149.388,44.951z"/>
	<path fill="#364D39" d="M155.293,44.954c-0.461,0.003-0.732,0.29-0.726,0.75c0.005,0.422,0.274,0.688,0.696,0.707
		c0.465,0.019,0.707-0.268,0.782-0.712C155.986,45.25,155.76,44.947,155.293,44.954z"/>
	<path fill="#364D39" d="M161.197,46.411c0.46,0.003,0.744-0.268,0.744-0.729c0.003-0.467-0.297-0.694-0.744-0.747
		c-0.448,0.075-0.732,0.318-0.713,0.785C160.503,46.14,160.771,46.405,161.197,46.411z"/>
	<path fill="#364D39" d="M167.148,44.954c-0.461,0-0.742,0.274-0.738,0.735c0,0.464,0.303,0.691,0.754,0.738
		c0.442-0.079,0.729-0.325,0.703-0.788C167.84,45.219,167.574,44.954,167.148,44.954z"/>
	<path fill="#364D39" d="M173.062,46.408c0.467,0,0.693-0.302,0.74-0.754c-0.078-0.442-0.324-0.729-0.788-0.7
		c-0.423,0.022-0.688,0.29-0.688,0.719C172.324,46.13,172.602,46.411,173.062,46.408z"/>
	<path fill="#364D39" d="M178.944,46.411c0.464,0.019,0.707-0.268,0.78-0.715c-0.061-0.452-0.288-0.749-0.751-0.742
		c-0.462,0.007-0.736,0.29-0.726,0.75C178.254,46.127,178.521,46.392,178.944,46.411z"/>
	<path fill="#364D39" d="M184.83,46.408c0.46,0.041,0.757-0.224,0.795-0.678c0.037-0.464-0.253-0.709-0.695-0.794
		c-0.457,0.044-0.75,0.268-0.762,0.734C184.155,46.096,184.41,46.374,184.83,46.408z"/>
	<path fill="#364D39" d="M190.746,46.408c0.465,0.041,0.764-0.224,0.799-0.678c0.037-0.464-0.253-0.709-0.695-0.794
		c-0.453,0.044-0.75,0.268-0.762,0.734C190.074,46.096,190.33,46.374,190.746,46.408z"/>
	<path fill="#364D39" d="M214.515,115.909c-0.429-0.013-0.706,0.243-0.743,0.659c-0.045,0.46,0.221,0.76,0.678,0.798
		c0.46,0.038,0.713-0.252,0.797-0.691C215.206,116.221,214.979,115.925,214.515,115.909z"/>
	<path fill="#364D39" d="M220.444,117.37c0.423-0.01,0.688-0.274,0.703-0.701c0.019-0.466-0.271-0.703-0.716-0.775
		c-0.455,0.056-0.751,0.286-0.741,0.75C219.697,117.104,219.977,117.379,220.444,117.37z"/>
	<path fill="#364D39" d="M80.559,119.577c-0.016,0.464,0.278,0.701,0.773,0.773c0.385-0.086,0.7-0.294,0.688-0.77
		c-0.01-0.426-0.271-0.694-0.691-0.713C80.868,118.849,80.578,119.117,80.559,119.577z"/>
	<path fill="#364D39" d="M105.025,49.392c0.381-0.092,0.693-0.303,0.678-0.779c-0.016-0.423-0.277-0.691-0.7-0.703
		c-0.46-0.013-0.748,0.259-0.76,0.716C104.229,49.093,104.526,49.326,105.025,49.392z"/>
	<path fill="#364D39" d="M110.163,48.644c0.006,0.46,0.293,0.732,0.754,0.723c0.422-0.01,0.688-0.274,0.706-0.701
		c0.016-0.463-0.271-0.703-0.716-0.776C110.453,47.951,110.156,48.178,110.163,48.644z"/>
	<path fill="#364D39" d="M116.815,49.367c0.463,0,0.693-0.3,0.743-0.75c-0.076-0.442-0.318-0.729-0.785-0.707
		c-0.419,0.019-0.688,0.287-0.691,0.709C116.076,49.08,116.351,49.363,116.815,49.367z"/>
	<path fill="#364D39" d="M122.693,49.367c0.46,0.019,0.751-0.252,0.767-0.71c0.016-0.464-0.28-0.7-0.728-0.767
		c-0.448,0.063-0.735,0.299-0.729,0.764C122.009,49.08,122.274,49.351,122.693,49.367z"/>
	<path fill="#364D39" d="M128.632,49.367c0.463,0.016,0.703-0.277,0.775-0.772c-0.088-0.385-0.296-0.701-0.77-0.688
		c-0.425,0.009-0.697,0.268-0.716,0.69C127.901,49.061,128.172,49.351,128.632,49.367z"/>
	<path fill="#364D39" d="M134.584,49.367c0.463-0.006,0.687-0.309,0.738-0.808c-0.104-0.378-0.325-0.688-0.798-0.652
		c-0.419,0.031-0.684,0.296-0.681,0.722C133.846,49.093,134.123,49.373,134.584,49.367z"/>
	<path fill="#364D39" d="M140.456,47.91c-0.419,0.019-0.687,0.287-0.69,0.709c-0.006,0.46,0.265,0.744,0.726,0.748
		c0.466,0,0.697-0.3,0.748-0.75C141.163,48.174,140.923,47.887,140.456,47.91z"/>
	<path fill="#364D39" d="M146.412,49.367c0.466,0.003,0.697-0.296,0.747-0.748c-0.076-0.445-0.318-0.729-0.783-0.709
		c-0.422,0.019-0.687,0.283-0.693,0.709C145.679,49.08,145.951,49.363,146.412,49.367z"/>
	<path fill="#364D39" d="M151.605,48.66c0.006,0.426,0.271,0.691,0.693,0.709c0.467,0.019,0.707-0.269,0.782-0.713
		c-0.056-0.447-0.283-0.747-0.747-0.744C151.871,47.916,151.597,48.2,151.605,48.66z"/>
	<path fill="#364D39" d="M158.213,49.367c0.465,0.019,0.754-0.252,0.77-0.71c0.017-0.464-0.281-0.7-0.729-0.767
		c-0.451,0.063-0.734,0.299-0.729,0.764C157.532,49.08,157.797,49.351,158.213,49.367z"/>
	<path fill="#364D39" d="M164.168,47.91c-0.461,0.006-0.729,0.29-0.723,0.75c0.01,0.426,0.277,0.691,0.701,0.707
		c0.466,0.019,0.706-0.269,0.778-0.716C164.865,48.203,164.639,47.903,164.168,47.91z"/>
	<path fill="#364D39" d="M170.05,49.367c0.467,0.025,0.71-0.262,0.792-0.701c-0.051-0.454-0.278-0.753-0.741-0.756
		c-0.46,0-0.734,0.28-0.734,0.737C169.366,49.076,169.634,49.341,170.05,49.367z"/>
	<path fill="#364D39" d="M175.999,47.91c-0.427,0.009-0.694,0.268-0.714,0.691c-0.021,0.46,0.25,0.75,0.71,0.769
		c0.464,0.016,0.703-0.277,0.772-0.772C176.684,48.212,176.478,47.896,175.999,47.91z"/>
	<path fill="#364D39" d="M181.941,49.367c0.467,0,0.693-0.303,0.74-0.757c-0.078-0.438-0.324-0.725-0.791-0.7
		c-0.42,0.022-0.686,0.29-0.686,0.716C181.208,49.086,181.48,49.37,181.941,49.367z"/>
	<path fill="#364D39" d="M187.867,49.367c0.463-0.006,0.693-0.309,0.734-0.764c-0.086-0.438-0.328-0.722-0.795-0.693
		c-0.42,0.025-0.685,0.296-0.681,0.722C187.126,49.093,187.406,49.373,187.867,49.367z"/>
	<path fill="#364D39" d="M193.707,49.367c0.462,0.041,0.758-0.224,0.795-0.679c0.039-0.463-0.251-0.709-0.689-0.794
		c-0.461,0.044-0.755,0.268-0.768,0.732C193.037,49.054,193.292,49.329,193.707,49.367z"/>
	<path fill="#364D39" d="M217.445,118.865c-0.426,0.002-0.697,0.268-0.717,0.688c-0.021,0.46,0.246,0.75,0.707,0.769
		c0.463,0.019,0.703-0.274,0.77-0.723C218.146,119.151,217.912,118.861,217.445,118.865z"/>
	<path fill="#364D39" d="M78.279,123.28c0.463,0.041,0.709-0.252,0.804-0.732c-0.066-0.397-0.268-0.713-0.738-0.726
		c-0.429-0.009-0.704,0.243-0.741,0.66C77.56,122.943,77.825,123.242,78.279,123.28z"/>
	<path fill="#364D39" d="M102.076,52.347c0.378-0.097,0.691-0.312,0.666-0.788c-0.025-0.422-0.287-0.688-0.713-0.694
		c-0.461-0.006-0.748,0.269-0.75,0.729C101.278,52.061,101.578,52.287,102.076,52.347z"/>
	<path fill="#364D39" d="M107.948,50.864c-0.46-0.006-0.744,0.269-0.748,0.729c-0.002,0.467,0.296,0.694,0.795,0.75
		c0.378-0.098,0.69-0.312,0.662-0.788C108.639,51.136,108.374,50.871,107.948,50.864z"/>
	<path fill="#364D39" d="M113.809,52.322c0.467,0.024,0.709-0.259,0.789-0.701c-0.047-0.454-0.275-0.754-0.742-0.757
		c-0.46,0-0.735,0.281-0.735,0.742C113.124,52.035,113.389,52.299,113.809,52.322z"/>
	<path fill="#364D39" d="M119.728,52.322c0.463,0.024,0.71-0.259,0.79-0.701c-0.048-0.454-0.278-0.754-0.742-0.757
		c-0.46,0-0.738,0.281-0.738,0.742C119.041,52.035,119.31,52.299,119.728,52.322z"/>
	<path fill="#364D39" d="M125.699,50.864c-0.46,0-0.735,0.281-0.735,0.742c0,0.426,0.265,0.693,0.688,0.716
		c0.467,0.024,0.709-0.259,0.788-0.701C126.393,51.171,126.162,50.868,125.699,50.864z"/>
	<path fill="#364D39" d="M131.569,52.322c0.466,0.024,0.709-0.259,0.791-0.701c-0.047-0.454-0.274-0.754-0.741-0.757
		c-0.46,0-0.734,0.281-0.734,0.742C130.884,52.035,131.149,52.299,131.569,52.322z"/>
	<path fill="#364D39" d="M137.514,52.322c0.463,0.015,0.704-0.278,0.767-0.726c-0.066-0.447-0.3-0.738-0.767-0.729
		c-0.426,0.007-0.693,0.272-0.712,0.691C136.785,52.02,137.054,52.306,137.514,52.322z"/>
	<path fill="#364D39" d="M143.472,50.864c-0.43-0.015-0.704,0.24-0.745,0.657c-0.044,0.46,0.217,0.76,0.672,0.798
		c0.463,0.041,0.709-0.25,0.798-0.685C144.159,51.18,143.935,50.881,143.472,50.864z"/>
	<path fill="#364D39" d="M149.388,50.864c-0.426-0.015-0.703,0.244-0.741,0.66c-0.043,0.46,0.222,0.759,0.672,0.794
		c0.467,0.041,0.713-0.252,0.802-0.688C150.079,51.177,149.855,50.881,149.388,50.864z"/>
	<path fill="#364D39" d="M155.258,50.864c-0.423,0.02-0.688,0.288-0.693,0.713c-0.007,0.461,0.268,0.742,0.729,0.745
		c0.464,0,0.697-0.297,0.747-0.748C155.965,51.129,155.722,50.846,155.258,50.864z"/>
	<path fill="#364D39" d="M161.229,50.864c-0.461,0-0.744,0.275-0.741,0.735c0.004,0.464,0.306,0.691,0.757,0.738
		c0.441-0.082,0.726-0.321,0.7-0.789C161.916,51.133,161.652,50.864,161.229,50.864z"/>
	<path fill="#364D39" d="M167.121,52.341c0.45-0.057,0.746-0.28,0.744-0.748c-0.004-0.46-0.291-0.732-0.748-0.726
		c-0.427,0.007-0.694,0.272-0.713,0.697C166.385,52.029,166.672,52.265,167.121,52.341z"/>
	<path fill="#364D39" d="M173.066,52.322c0.463-0.003,0.689-0.306,0.734-0.76c-0.086-0.442-0.328-0.726-0.795-0.698
		c-0.42,0.029-0.686,0.296-0.682,0.723C172.327,52.051,172.608,52.328,173.066,52.322z"/>
	<path fill="#364D39" d="M178.985,52.322c0.464-0.003,0.69-0.306,0.734-0.76c-0.085-0.442-0.327-0.726-0.794-0.698
		c-0.42,0.029-0.688,0.296-0.685,0.723C178.248,52.051,178.527,52.328,178.985,52.322z"/>
	<path fill="#364D39" d="M185.644,51.562c-0.082-0.442-0.329-0.726-0.796-0.698c-0.418,0.029-0.684,0.296-0.68,0.723
		c0.002,0.46,0.277,0.738,0.736,0.735C185.372,52.319,185.6,52.016,185.644,51.562z"/>
	<path fill="#364D39" d="M190.768,50.864c-0.418,0.029-0.684,0.296-0.68,0.723c0.002,0.46,0.281,0.738,0.736,0.735
		c0.465-0.003,0.695-0.306,0.736-0.76C191.479,51.12,191.234,50.836,190.768,50.864z"/>
	<path fill="#364D39" d="M196.748,52.322c0.461-0.003,0.691-0.306,0.736-0.76c-0.086-0.442-0.329-0.726-0.799-0.698
		c-0.42,0.029-0.684,0.296-0.682,0.723C196.01,52.051,196.287,52.328,196.748,52.322z"/>
	<path fill="#364D39" d="M84.183,123.28c0.46,0.041,0.76-0.224,0.795-0.678c0.037-0.464-0.253-0.71-0.692-0.795
		c-0.457,0.041-0.753,0.268-0.766,0.731C83.505,122.968,83.764,123.242,84.183,123.28z"/>
	<path fill="#364D39" d="M214.572,121.826c-0.461-0.044-0.761,0.221-0.801,0.672c-0.041,0.463,0.248,0.712,0.687,0.797
		c0.458-0.038,0.754-0.261,0.772-0.728C215.246,122.145,214.984,121.867,214.572,121.826z"/>
	<path fill="#364D39" d="M99.017,55.28c0.466,0.019,0.706-0.269,0.788-0.754c-0.075-0.395-0.287-0.709-0.757-0.703
		c-0.46,0.006-0.735,0.29-0.725,0.75C98.329,54.997,98.593,55.262,99.017,55.28z"/>
	<path fill="#364D39" d="M104.937,55.28c0.467,0.019,0.707-0.269,0.788-0.754c-0.075-0.395-0.287-0.709-0.757-0.703
		c-0.46,0.006-0.731,0.29-0.725,0.75C104.249,54.997,104.514,55.262,104.937,55.28z"/>
	<path fill="#364D39" d="M110.856,55.28c0.467,0.019,0.707-0.269,0.788-0.754c-0.076-0.395-0.287-0.709-0.757-0.703
		c-0.461,0.006-0.735,0.29-0.728,0.75C110.168,54.997,110.437,55.262,110.856,55.28z"/>
	<path fill="#364D39" d="M116.812,53.823c-0.461,0.006-0.735,0.29-0.726,0.75c0.007,0.423,0.271,0.691,0.694,0.71
		c0.466,0.019,0.706-0.269,0.789-0.754C117.489,54.132,117.278,53.817,116.812,53.823z"/>
	<path fill="#364D39" d="M122.693,55.28c0.46,0.019,0.751-0.252,0.767-0.709c0.016-0.467-0.28-0.704-0.728-0.767
		c-0.448,0.066-0.735,0.3-0.729,0.767C122.009,54.993,122.274,55.262,122.693,55.28z"/>
	<path fill="#364D39" d="M128.632,55.28c0.463,0.016,0.703-0.277,0.775-0.77c-0.088-0.385-0.296-0.7-0.77-0.688
		c-0.425,0.009-0.697,0.271-0.716,0.69C127.901,54.974,128.172,55.262,128.632,55.28z"/>
	<path fill="#364D39" d="M133.846,54.479c-0.044,0.46,0.217,0.76,0.672,0.798c0.463,0.041,0.713-0.249,0.798-0.684
		c-0.038-0.458-0.262-0.754-0.726-0.77C134.161,53.807,133.887,54.063,133.846,54.479z"/>
	<path fill="#364D39" d="M140.507,55.28c0.426-0.003,0.694-0.269,0.716-0.691c0.025-0.463-0.262-0.706-0.706-0.785
		c-0.451,0.054-0.751,0.278-0.751,0.744C139.766,55.009,140.05,55.284,140.507,55.28z"/>
	<path fill="#364D39" d="M146.427,55.306c0.397-0.07,0.72-0.277,0.72-0.748c0-0.461-0.281-0.735-0.742-0.735
		c-0.426,0-0.694,0.265-0.72,0.688C145.657,54.974,145.945,55.217,146.427,55.306z"/>
	<path fill="#364D39" d="M152.297,55.28c0.467,0.025,0.705-0.262,0.784-0.703c-0.054-0.455-0.276-0.754-0.743-0.754
		c-0.461,0-0.735,0.283-0.732,0.744C151.609,54.993,151.871,55.258,152.297,55.28z"/>
	<path fill="#364D39" d="M158.985,54.539c-0.003-0.426-0.268-0.693-0.688-0.716c-0.46-0.022-0.753,0.249-0.772,0.707
		c-0.016,0.463,0.277,0.7,0.723,0.77C158.699,55.239,158.988,55.003,158.985,54.539z"/>
	<path fill="#364D39" d="M164.188,55.28c0.463-0.003,0.69-0.306,0.734-0.76c-0.086-0.441-0.328-0.726-0.795-0.697
		c-0.422,0.028-0.685,0.296-0.685,0.722C163.449,55.006,163.729,55.284,164.188,55.28z"/>
	<path fill="#364D39" d="M169.366,54.558c0.006,0.46,0.296,0.732,0.753,0.722c0.423-0.007,0.691-0.274,0.707-0.697
		c0.019-0.466-0.271-0.707-0.717-0.779C169.659,53.861,169.359,54.091,169.366,54.558z"/>
	<path fill="#364D39" d="M176.027,55.28c0.463-0.007,0.693-0.31,0.737-0.805c-0.104-0.378-0.325-0.688-0.798-0.652
		c-0.419,0.032-0.684,0.296-0.682,0.722C175.292,55.006,175.564,55.284,176.027,55.28z"/>
	<path fill="#364D39" d="M181.895,55.28c0.465,0.025,0.709-0.262,0.787-0.703c-0.051-0.455-0.277-0.754-0.74-0.754
		c-0.461,0-0.736,0.281-0.733,0.741C181.208,54.99,181.475,55.255,181.895,55.28z"/>
	<path fill="#364D39" d="M187.126,54.482c-0.044,0.461,0.224,0.76,0.679,0.798c0.463,0.038,0.709-0.252,0.797-0.691
		c-0.041-0.458-0.268-0.75-0.729-0.766C187.445,53.807,187.166,54.066,187.126,54.482z"/>
	<path fill="#364D39" d="M193.746,55.28c0.461,0.013,0.747-0.259,0.756-0.716c0.01-0.463-0.283-0.697-0.731-0.76
		c-0.45,0.069-0.733,0.306-0.722,0.773C193.058,55,193.32,55.268,193.746,55.28z"/>
	<path fill="#364D39" d="M199.678,55.299c0.455-0.054,0.752-0.284,0.748-0.748c-0.006-0.461-0.29-0.735-0.75-0.726
		c-0.426,0.007-0.691,0.275-0.711,0.698C198.949,54.984,199.234,55.224,199.678,55.299z"/>
	<path fill="#364D39" d="M220.387,123.28c0.465,0.019,0.704-0.268,0.777-0.716c-0.057-0.449-0.287-0.748-0.752-0.742
		c-0.46,0.007-0.734,0.293-0.725,0.751C219.697,122.999,219.965,123.264,220.387,123.28z"/>
	<path fill="#364D39" d="M96.118,58.254c0.441-0.083,0.729-0.325,0.703-0.789c-0.025-0.419-0.29-0.685-0.719-0.685
		c-0.46,0-0.74,0.275-0.74,0.735C95.365,57.979,95.664,58.207,96.118,58.254z"/>
	<path fill="#364D39" d="M102.025,58.239c0.425-0.003,0.691-0.269,0.716-0.688c0.025-0.464-0.262-0.707-0.704-0.789
		c-0.455,0.05-0.754,0.274-0.757,0.741C101.281,57.964,101.564,58.239,102.025,58.239z"/>
	<path fill="#364D39" d="M81.284,124.781c-0.46,0.006-0.731,0.29-0.722,0.751c0.006,0.422,0.274,0.69,0.697,0.707
		c0.467,0.019,0.707-0.269,0.782-0.716C81.982,125.075,81.751,124.775,81.284,124.781z"/>
	<path fill="#364D39" d="M217.43,124.781c-0.424,0.016-0.691,0.278-0.701,0.704c-0.012,0.46,0.262,0.747,0.723,0.754
		c0.467,0.006,0.7-0.291,0.754-0.741C218.135,125.049,217.893,124.766,217.43,124.781z"/>
	<path fill="#364D39" d="M119.728,58.236c0.463,0.028,0.71-0.259,0.79-0.701c-0.048-0.454-0.278-0.754-0.742-0.757
		c-0.46,0-0.738,0.281-0.738,0.738C119.041,57.945,119.31,58.213,119.728,58.236z"/>
	<path fill="#364D39" d="M125.674,56.778c-0.426,0.006-0.694,0.271-0.709,0.691c-0.019,0.46,0.249,0.75,0.709,0.767
		c0.463,0.015,0.7-0.281,0.766-0.729C126.377,57.062,126.141,56.772,125.674,56.778z"/>
	<path fill="#364D39" d="M131.606,56.778c-0.46,0.003-0.731,0.29-0.722,0.748c0.006,0.426,0.271,0.69,0.693,0.71
		c0.467,0.019,0.711-0.268,0.786-0.713C132.306,57.074,132.076,56.775,131.606,56.778z"/>
	<path fill="#364D39" d="M136.804,57.453c-0.041,0.464,0.25,0.713,0.688,0.801c0.454-0.041,0.753-0.265,0.772-0.729
		c0.016-0.426-0.243-0.703-0.656-0.745C137.145,56.737,136.846,57.002,136.804,57.453z"/>
	<path fill="#364D39" d="M143.487,58.254c0.438-0.085,0.722-0.328,0.694-0.794c-0.025-0.42-0.294-0.685-0.723-0.682
		c-0.46,0.003-0.742,0.281-0.735,0.738C142.73,57.983,143.03,58.21,143.487,58.254z"/>
	<path fill="#364D39" d="M149.41,56.781c-0.46-0.022-0.75,0.25-0.766,0.707c-0.015,0.467,0.277,0.704,0.723,0.77
		c0.45-0.063,0.741-0.297,0.735-0.764C150.098,57.068,149.833,56.8,149.41,56.781z"/>
	<path fill="#364D39" d="M155.223,58.236c0.461,0.044,0.762-0.221,0.798-0.675c0.042-0.466-0.248-0.709-0.687-0.798
		c-0.461,0.041-0.754,0.265-0.77,0.728C154.549,57.92,154.807,58.198,155.223,58.236z"/>
	<path fill="#364D39" d="M161.199,58.254c0.453-0.053,0.748-0.284,0.742-0.75c-0.003-0.46-0.287-0.732-0.744-0.726
		c-0.43,0.006-0.694,0.275-0.713,0.694C160.463,57.942,160.749,58.182,161.199,58.254z"/>
	<path fill="#364D39" d="M167.157,58.236c0.427-0.006,0.691-0.275,0.708-0.697c0.019-0.464-0.27-0.704-0.717-0.776
		c-0.451,0.057-0.747,0.287-0.742,0.75C166.414,57.974,166.697,58.245,167.157,58.236z"/>
	<path fill="#364D39" d="M173.04,58.254c0.451-0.053,0.751-0.284,0.744-0.75c-0.003-0.46-0.29-0.732-0.747-0.726
		c-0.426,0.006-0.691,0.275-0.71,0.694C172.305,57.942,172.596,58.182,173.04,58.254z"/>
	<path fill="#364D39" d="M178.244,57.504c0.004,0.46,0.287,0.735,0.746,0.732c0.424-0.003,0.691-0.268,0.714-0.691
		c0.025-0.464-0.265-0.707-0.706-0.786C178.547,56.813,178.244,57.04,178.244,57.504z"/>
	<path fill="#364D39" d="M78.323,129.194c0.46-0.003,0.741-0.281,0.735-0.741c-0.003-0.464-0.306-0.691-0.804-0.738
		c-0.378,0.104-0.688,0.328-0.653,0.798C77.629,128.932,77.897,129.197,78.323,129.194z"/>
	<path fill="#364D39" d="M220.395,127.737c-0.426,0.01-0.695,0.274-0.707,0.7c-0.016,0.46,0.256,0.748,0.719,0.757
		c0.464,0.009,0.697-0.284,0.758-0.732C221.098,128.011,220.863,127.724,220.395,127.737z"/>
	<path fill="#364D39" d="M196.768,56.778c-0.461-0.013-0.75,0.258-0.761,0.716c-0.013,0.463,0.288,0.701,0.735,0.76
		c0.448-0.066,0.734-0.306,0.723-0.772C197.455,57.062,197.19,56.794,196.768,56.778z"/>
	<path fill="#364D39" d="M202.662,58.254c0.447-0.066,0.734-0.306,0.723-0.772c-0.013-0.423-0.277-0.69-0.701-0.704
		c-0.459-0.013-0.746,0.258-0.756,0.716C201.918,57.961,202.215,58.195,202.662,58.254z"/>
	<path fill="#364D39" d="M93.106,61.19c0.464,0.02,0.703-0.274,0.77-0.722c-0.06-0.448-0.291-0.738-0.76-0.735
		c-0.426,0.003-0.693,0.269-0.716,0.688C92.377,60.882,92.648,61.172,93.106,61.19z"/>
	<path fill="#364D39" d="M98.322,60.428c-0.019,0.46,0.25,0.75,0.709,0.766c0.467,0.016,0.704-0.274,0.77-0.722
		c-0.063-0.451-0.296-0.738-0.763-0.731C98.609,59.74,98.341,60.004,98.322,60.428z"/>
	<path fill="#364D39" d="M122.75,59.733c-0.461-0.003-0.745,0.269-0.748,0.729c-0.002,0.464,0.297,0.694,0.792,0.75
		c0.381-0.101,0.694-0.312,0.665-0.789C123.441,60.008,123.176,59.74,122.75,59.733z"/>
	<path fill="#364D39" d="M127.922,60.412c-0.041,0.464,0.253,0.709,0.729,0.808c0.398-0.066,0.719-0.265,0.732-0.735
		c0.009-0.429-0.243-0.707-0.659-0.744C128.263,59.693,127.963,59.958,127.922,60.412z"/>
	<path fill="#364D39" d="M134.584,61.19c0.463-0.003,0.687-0.306,0.731-0.76c-0.082-0.438-0.328-0.726-0.792-0.697
		c-0.419,0.029-0.684,0.297-0.681,0.722C133.846,60.919,134.123,61.197,134.584,61.19z"/>
	<path fill="#364D39" d="M140.485,59.733c-0.46,0.009-0.732,0.294-0.722,0.754c0.009,0.422,0.274,0.688,0.697,0.703
		c0.467,0.017,0.707-0.271,0.788-0.76C141.169,60.043,140.958,59.728,140.485,59.733z"/>
	<path fill="#364D39" d="M146.427,61.219c0.397-0.069,0.72-0.277,0.72-0.748c0-0.46-0.281-0.735-0.742-0.735
		c-0.426,0-0.694,0.265-0.72,0.688C145.657,60.888,145.945,61.128,146.427,61.219z"/>
	<path fill="#364D39" d="M152.265,61.19c0.46,0.042,0.761-0.223,0.795-0.674c0.038-0.464-0.252-0.71-0.69-0.795
		c-0.457,0.044-0.754,0.268-0.767,0.734C151.59,60.878,151.845,61.153,152.265,61.19z"/>
	<path fill="#364D39" d="M158.248,61.213c0.451-0.063,0.737-0.296,0.734-0.76c-0.002-0.426-0.268-0.694-0.688-0.716
		c-0.46-0.022-0.754,0.246-0.772,0.707C157.51,60.907,157.803,61.143,158.248,61.213z"/>
	<path fill="#364D39" d="M164.148,59.733c-0.422,0.013-0.689,0.278-0.706,0.7c-0.013,0.461,0.259,0.748,0.723,0.757
		c0.463,0.01,0.696-0.284,0.757-0.731C164.855,60.011,164.618,59.724,164.148,59.733z"/>
	<path fill="#364D39" d="M170.062,61.194c0.467,0.019,0.707-0.268,0.779-0.716c-0.061-0.451-0.287-0.748-0.75-0.741
		c-0.462,0.006-0.735,0.291-0.726,0.751C169.375,60.913,169.643,61.175,170.062,61.194z"/>
	<path fill="#364D39" d="M175.288,60.472c0.007,0.457,0.291,0.732,0.751,0.722c0.426-0.01,0.691-0.274,0.707-0.697
		c0.019-0.466-0.269-0.706-0.717-0.778C175.576,59.774,175.283,60.004,175.288,60.472z"/>
	<path fill="#364D39" d="M199.629,61.19c0.46,0.042,0.76-0.223,0.797-0.674c0.038-0.464-0.256-0.71-0.696-0.795
		c-0.454,0.044-0.751,0.268-0.765,0.734C198.953,60.878,199.212,61.153,199.629,61.19z"/>
	<path fill="#364D39" d="M205.634,61.194c0.423,0,0.693-0.268,0.715-0.688c0.026-0.467-0.261-0.709-0.744-0.795
		c-0.397,0.073-0.716,0.278-0.716,0.751C204.887,60.919,205.17,61.194,205.634,61.194z"/>
	<path fill="#364D39" d="M90.163,64.149c0.46-0.003,0.742-0.281,0.735-0.741c-0.003-0.46-0.309-0.688-0.763-0.732
		c-0.442,0.085-0.726,0.328-0.698,0.795C89.469,63.887,89.737,64.152,90.163,64.149z"/>
	<path fill="#364D39" d="M96.105,62.692c-0.429-0.012-0.703,0.246-0.741,0.663c-0.041,0.46,0.224,0.76,0.678,0.795
		c0.464,0.038,0.712-0.255,0.794-0.694C96.792,63.001,96.569,62.705,96.105,62.692z"/>
	<path fill="#364D39" d="M130.884,63.38c-0.023,0.46,0.246,0.75,0.703,0.769c0.467,0.019,0.707-0.274,0.772-0.723
		c-0.06-0.448-0.293-0.738-0.763-0.735C131.174,62.695,130.903,62.96,130.884,63.38z"/>
	<path fill="#364D39" d="M137.545,64.149c0.463-0.003,0.691-0.306,0.735-0.764c-0.085-0.438-0.332-0.722-0.795-0.694
		c-0.42,0.025-0.684,0.293-0.682,0.723C136.807,63.875,137.085,64.155,137.545,64.149z"/>
	<path fill="#364D39" d="M143.459,64.168c0.448-0.066,0.734-0.306,0.723-0.77c-0.013-0.426-0.275-0.694-0.697-0.707
		c-0.46-0.012-0.748,0.256-0.76,0.716C142.715,63.875,143.008,64.108,143.459,64.168z"/>
	<path fill="#364D39" d="M149.367,62.676c-0.448,0.066-0.735,0.306-0.723,0.77c0.013,0.426,0.277,0.69,0.697,0.707
		c0.463,0.013,0.75-0.258,0.763-0.719C150.113,62.967,149.814,62.736,149.367,62.676z"/>
	<path fill="#364D39" d="M155.271,62.692c-0.423,0.006-0.688,0.275-0.707,0.697c-0.02,0.467,0.271,0.707,0.716,0.779
		c0.451-0.056,0.751-0.287,0.744-0.75C156.018,62.957,155.731,62.683,155.271,62.692z"/>
	<path fill="#364D39" d="M161.229,64.149c0.464-0.003,0.691-0.306,0.731-0.764c-0.082-0.438-0.328-0.722-0.791-0.694
		c-0.423,0.025-0.688,0.293-0.685,0.723C160.487,63.875,160.766,64.155,161.229,64.149z"/>
	<path fill="#364D39" d="M167.123,64.149c0.467,0.012,0.699-0.284,0.768-0.779c-0.093-0.381-0.304-0.697-0.78-0.678
		c-0.423,0.016-0.69,0.278-0.704,0.697C166.392,63.853,166.662,64.136,167.123,64.149z"/>
	<path fill="#364D39" d="M202.641,64.168c0.451-0.056,0.746-0.284,0.74-0.747c-0.003-0.46-0.287-0.735-0.746-0.726
		c-0.428,0.006-0.691,0.271-0.711,0.694C201.908,63.853,202.195,64.092,202.641,64.168z"/>
	<path fill="#364D39" d="M208.582,64.149c0.467,0,0.694-0.303,0.74-0.757c-0.078-0.438-0.323-0.725-0.791-0.7
		c-0.419,0.022-0.684,0.291-0.688,0.716C207.848,63.869,208.126,64.149,208.582,64.149z"/>
	<path fill="#364D39" d="M87.239,67.126c0.441-0.082,0.729-0.324,0.7-0.789c-0.021-0.419-0.291-0.684-0.719-0.684
		c-0.461,0-0.741,0.274-0.741,0.732C86.483,66.849,86.785,67.076,87.239,67.126z"/>
	<path fill="#364D39" d="M93.203,65.65c-0.46-0.044-0.76,0.221-0.801,0.672c-0.041,0.463,0.249,0.713,0.729,0.807
		c0.401-0.062,0.716-0.265,0.728-0.734C93.873,65.966,93.62,65.691,93.203,65.65z"/>
	<path fill="#364D39" d="M139.763,66.395c0.003,0.426,0.268,0.69,0.688,0.712c0.466,0.025,0.709-0.262,0.789-0.707
		c-0.05-0.454-0.278-0.753-0.748-0.75C140.034,65.65,139.759,65.935,139.763,66.395z"/>
	<path fill="#364D39" d="M146.43,65.647c-0.429-0.012-0.704,0.243-0.741,0.659c-0.045,0.461,0.22,0.761,0.674,0.798
		c0.464,0.038,0.713-0.252,0.798-0.691C147.118,65.962,146.893,65.663,146.43,65.647z"/>
	<path fill="#364D39" d="M152.287,65.65c-0.42,0.029-0.685,0.296-0.682,0.722c0.004,0.461,0.277,0.742,0.74,0.735
		c0.465-0.006,0.688-0.309,0.732-0.763C152.993,65.906,152.754,65.619,152.287,65.65z"/>
	<path fill="#364D39" d="M158.242,67.107c0.463,0.01,0.699-0.287,0.766-0.782c-0.091-0.382-0.303-0.694-0.778-0.675
		c-0.427,0.016-0.691,0.274-0.707,0.698C157.513,66.808,157.784,67.095,158.242,67.107z"/>
	<path fill="#364D39" d="M205.611,67.107c0.464,0.007,0.697-0.29,0.754-0.741c-0.069-0.445-0.315-0.731-0.775-0.719
		c-0.427,0.016-0.695,0.281-0.703,0.703C204.877,66.814,205.147,67.098,205.611,67.107z"/>
	<path fill="#364D39" d="M211.537,67.126c0.448-0.063,0.734-0.296,0.729-0.763c-0.007-0.425-0.269-0.693-0.691-0.713
		c-0.46-0.019-0.751,0.25-0.77,0.707C210.791,66.824,211.087,67.06,211.537,67.126z"/>
	<path fill="#364D39" d="M84.278,70.082c0.441-0.082,0.725-0.325,0.701-0.789c-0.022-0.419-0.291-0.685-0.716-0.688
		c-0.461,0-0.742,0.274-0.742,0.734C83.521,69.804,83.823,70.031,84.278,70.082z"/>
	<path fill="#364D39" d="M90.198,70.082c0.441-0.082,0.729-0.325,0.703-0.789c-0.025-0.419-0.293-0.685-0.718-0.688
		c-0.461,0-0.742,0.274-0.742,0.734C89.444,69.804,89.744,70.031,90.198,70.082z"/>
	<path fill="#364D39" d="M208.589,68.606c-0.46,0-0.741,0.274-0.737,0.734c0,0.464,0.303,0.691,0.753,0.738
		c0.444-0.082,0.728-0.325,0.702-0.788C209.282,68.871,209.018,68.606,208.589,68.606z"/>
	<path fill="#364D39" d="M214.528,70.082c0.438-0.082,0.726-0.325,0.699-0.789c-0.021-0.419-0.293-0.688-0.72-0.688
		c-0.46,0-0.74,0.274-0.74,0.734C213.771,69.804,214.07,70.031,214.528,70.082z"/>
	<path fill="#364D39" d="M87.17,73.019c0.466,0.025,0.709-0.262,0.788-0.707c-0.051-0.451-0.278-0.75-0.745-0.75
		c-0.46,0-0.734,0.284-0.731,0.745C86.483,72.731,86.751,72.997,87.17,73.019z"/>
	<path fill="#364D39" d="M211.521,73.019c0.461,0.006,0.741-0.268,0.745-0.729c0-0.463-0.297-0.693-0.747-0.748
		c-0.449,0.076-0.732,0.318-0.714,0.786C210.827,72.747,211.094,73.015,211.521,73.019z"/>
	<path fill="#364D39" d="M84.237,75.974c0.466,0.013,0.697-0.284,0.757-0.732c-0.066-0.448-0.306-0.735-0.772-0.722
		c-0.423,0.013-0.691,0.274-0.704,0.697C83.505,75.681,83.776,75.964,84.237,75.974z"/>
	<path fill="#364D39" d="M90.135,75.974c0.46,0.022,0.75-0.249,0.766-0.709c0.016-0.464-0.281-0.7-0.772-0.773
		c-0.385,0.088-0.701,0.293-0.688,0.77C89.451,75.693,89.712,75.958,90.135,75.974z"/>
	<path fill="#364D39" d="M208.57,75.974c0.463,0.01,0.696-0.29,0.752-0.738c-0.068-0.448-0.311-0.731-0.777-0.716
		c-0.424,0.016-0.688,0.278-0.701,0.704C207.838,75.684,208.112,75.967,208.57,75.974z"/>
	<path fill="#364D39" d="M214.486,75.974c0.461,0.013,0.7-0.284,0.756-0.732c-0.064-0.448-0.305-0.735-0.768-0.722
		c-0.427,0.013-0.697,0.274-0.711,0.697C213.755,75.681,214.026,75.964,214.486,75.974z"/>
	<path fill="#364D39" d="M81.3,78.932c0.464-0.003,0.691-0.306,0.735-0.76c-0.085-0.438-0.328-0.725-0.794-0.694
		c-0.419,0.025-0.685,0.296-0.682,0.723C80.562,78.658,80.84,78.938,81.3,78.932z"/>
	<path fill="#364D39" d="M87.179,78.951c0.454-0.048,0.757-0.274,0.757-0.738c0-0.46-0.281-0.735-0.741-0.735
		c-0.426,0-0.694,0.265-0.719,0.688C86.454,78.626,86.741,78.869,87.179,78.951z"/>
	<path fill="#364D39" d="M211.516,77.475c-0.426,0.013-0.693,0.275-0.71,0.7c-0.013,0.46,0.259,0.748,0.72,0.757
		c0.467,0.012,0.699-0.284,0.76-0.731C212.219,77.753,211.979,77.462,211.516,77.475z"/>
	<path fill="#364D39" d="M217.451,78.951c0.455-0.06,0.741-0.293,0.738-0.76c-0.007-0.426-0.268-0.694-0.69-0.716
		c-0.462-0.022-0.751,0.246-0.771,0.707C216.71,78.645,217.006,78.885,217.451,78.951z"/>
	<path fill="#364D39" d="M84.224,81.891c0.461,0.01,0.745-0.262,0.755-0.722c0.006-0.464-0.291-0.697-0.738-0.754
		c-0.449,0.072-0.735,0.312-0.72,0.776C83.537,81.613,83.801,81.88,84.224,81.891z"/>
	<path fill="#364D39" d="M90.166,80.433c-0.46,0.003-0.731,0.291-0.725,0.748c0.006,0.425,0.274,0.69,0.697,0.709
		c0.467,0.019,0.706-0.268,0.789-0.757C90.85,80.742,90.636,80.427,90.166,80.433z"/>
	<path fill="#364D39" d="M208.548,81.906c0.456-0.047,0.754-0.274,0.757-0.738c0.002-0.461-0.28-0.735-0.742-0.735
		c-0.425,0-0.693,0.265-0.719,0.684C207.822,81.584,208.109,81.828,208.548,81.906z"/>
	<path fill="#364D39" d="M213.768,81.165c0.004,0.467,0.307,0.694,0.761,0.741c0.438-0.079,0.726-0.325,0.699-0.789
		c-0.021-0.419-0.293-0.684-0.72-0.684C214.051,80.43,213.768,80.708,213.768,81.165z"/>
	<path fill="#364D39" d="M81.3,84.846c0.464-0.006,0.691-0.306,0.735-0.764c-0.085-0.438-0.328-0.722-0.794-0.693
		c-0.419,0.028-0.685,0.293-0.682,0.722C80.562,84.572,80.84,84.848,81.3,84.846z"/>
	<path fill="#364D39" d="M87.205,83.389c-0.46,0.005-0.731,0.29-0.722,0.75c0.006,0.427,0.274,0.688,0.696,0.707
		c0.467,0.019,0.707-0.269,0.779-0.716C87.901,83.682,87.671,83.383,87.205,83.389z"/>
	<path fill="#364D39" d="M211.502,83.373c-0.44,0.085-0.722,0.328-0.696,0.795c0.028,0.419,0.297,0.681,0.722,0.678
		c0.461-0.003,0.739-0.277,0.735-0.738C212.26,83.641,211.96,83.417,211.502,83.373z"/>
	<path fill="#364D39" d="M217.426,84.846c0.467,0.019,0.709-0.269,0.779-0.716c-0.057-0.451-0.287-0.747-0.754-0.741
		c-0.461,0.005-0.729,0.29-0.723,0.75C216.738,84.565,217.004,84.831,217.426,84.846z"/>
	<path fill="#364D39" d="M78.286,87.801c0.466,0.025,0.708-0.261,0.788-0.7c-0.047-0.454-0.274-0.757-0.738-0.757
		c-0.46,0-0.738,0.281-0.734,0.742C77.601,87.511,77.866,87.778,78.286,87.801z"/>
	<path fill="#364D39" d="M84.25,87.801c0.463,0,0.693-0.296,0.75-0.794c-0.098-0.378-0.312-0.691-0.789-0.663
		c-0.422,0.025-0.688,0.287-0.694,0.712C83.515,87.517,83.789,87.798,84.25,87.801z"/>
	<path fill="#364D39" d="M90.205,86.328c-0.458,0.044-0.751,0.268-0.767,0.731c-0.013,0.426,0.247,0.704,0.663,0.739
		c0.46,0.041,0.76-0.224,0.794-0.675C90.936,86.659,90.646,86.413,90.205,86.328z"/>
	<path fill="#364D39" d="M209.327,87.079c-0.063-0.451-0.298-0.741-0.762-0.735c-0.425,0.003-0.696,0.268-0.714,0.688
		c-0.026,0.461,0.245,0.75,0.702,0.77C209.021,87.819,209.258,87.526,209.327,87.079z"/>
	<path fill="#364D39" d="M214.528,87.819c0.438-0.082,0.726-0.324,0.699-0.788c-0.021-0.419-0.293-0.688-0.72-0.688
		c-0.46,0-0.74,0.274-0.74,0.735C213.771,87.545,214.07,87.773,214.528,87.819z"/>
	<path fill="#364D39" d="M220.447,87.819c0.441-0.082,0.726-0.324,0.7-0.788c-0.025-0.419-0.29-0.688-0.716-0.688
		c-0.463,0-0.744,0.274-0.741,0.735C219.69,87.545,219.99,87.773,220.447,87.819z"/>
	<path fill="#364D39" d="M81.3,90.759c0.464-0.006,0.691-0.309,0.735-0.764c-0.085-0.438-0.328-0.725-0.794-0.693
		c-0.419,0.028-0.685,0.297-0.682,0.722C80.562,90.484,80.84,90.763,81.3,90.759z"/>
	<path fill="#364D39" d="M87.217,90.759c0.463,0,0.69-0.303,0.741-0.757c-0.082-0.441-0.325-0.725-0.788-0.7
		c-0.419,0.026-0.685,0.291-0.688,0.716C86.479,90.479,86.757,90.759,87.217,90.759z"/>
	<path fill="#364D39" d="M210.806,90.009c-0.015,0.467,0.281,0.703,0.729,0.77c0.447-0.063,0.734-0.296,0.728-0.763
		c-0.006-0.427-0.269-0.694-0.69-0.713C211.115,89.283,210.824,89.551,210.806,90.009z"/>
	<path fill="#364D39" d="M217.426,90.759c0.461,0.013,0.751-0.258,0.761-0.719c0.012-0.463-0.288-0.697-0.735-0.757
		c-0.447,0.069-0.734,0.306-0.723,0.772C216.742,90.479,217.004,90.747,217.426,90.759z"/>
	<path fill="#364D39" d="M78.288,93.734c0.458-0.041,0.754-0.262,0.77-0.729c0.016-0.426-0.24-0.703-0.656-0.741
		c-0.461-0.044-0.76,0.218-0.801,0.672C77.56,93.399,77.85,93.642,78.288,93.734z"/>
	<path fill="#364D39" d="M84.208,93.715c0.467,0.024,0.71-0.262,0.789-0.704c-0.047-0.454-0.274-0.754-0.741-0.754
		c-0.461,0-0.735,0.278-0.735,0.741C83.521,93.428,83.786,93.693,84.208,93.715z"/>
	<path fill="#364D39" d="M89.441,92.973c0,0.46,0.274,0.742,0.735,0.739c0.463,0,0.693-0.3,0.741-0.754
		c-0.082-0.442-0.325-0.726-0.788-0.701C89.706,92.283,89.441,92.548,89.441,92.973z"/>
	<path fill="#364D39" d="M208.574,92.261c-0.462,0.003-0.734,0.287-0.723,0.747c0.006,0.426,0.27,0.691,0.693,0.71
		c0.467,0.019,0.709-0.265,0.782-0.713C209.27,92.554,209.043,92.254,208.574,92.261z"/>
	<path fill="#364D39" d="M214.465,93.715c0.463,0.015,0.709-0.269,0.777-0.717c-0.056-0.451-0.285-0.748-0.749-0.738
		c-0.46,0.006-0.734,0.29-0.726,0.75C213.777,93.434,214.045,93.699,214.465,93.715z"/>
	<path fill="#364D39" d="M220.391,93.734c0.454-0.047,0.751-0.275,0.754-0.738c0-0.46-0.277-0.735-0.738-0.735
		c-0.43,0-0.697,0.265-0.722,0.685C219.662,93.412,219.949,93.651,220.391,93.734z"/>
	<path fill="#364D39" d="M81.25,96.67c0.464,0.019,0.754-0.252,0.767-0.709c0.015-0.464-0.278-0.7-0.726-0.766
		c-0.451,0.062-0.738,0.296-0.732,0.766C80.566,96.386,80.831,96.654,81.25,96.67z"/>
	<path fill="#364D39" d="M86.483,95.891c-0.042,0.463,0.249,0.709,0.688,0.798c0.457-0.041,0.754-0.265,0.772-0.726
		c0.016-0.429-0.24-0.707-0.656-0.744C86.82,95.172,86.521,95.437,86.483,95.891z"/>
	<path fill="#364D39" d="M211.557,96.673c0.426-0.003,0.69-0.268,0.713-0.69c0.021-0.467-0.262-0.706-0.707-0.785
		c-0.455,0.05-0.753,0.277-0.753,0.744C210.81,96.402,211.09,96.676,211.557,96.673z"/>
	<path fill="#364D39" d="M217.426,96.67c0.461,0.013,0.751-0.259,0.761-0.716c0.012-0.467-0.288-0.7-0.735-0.76
		c-0.447,0.066-0.734,0.306-0.723,0.772C216.742,96.389,217.004,96.657,217.426,96.67z"/>
	<path fill="#364D39" d="M78.342,98.171c-0.429-0.013-0.703,0.246-0.741,0.659c-0.041,0.46,0.224,0.76,0.678,0.795
		c0.463,0.038,0.712-0.256,0.794-0.694C79.033,98.48,78.809,98.184,78.342,98.171z"/>
	<path fill="#364D39" d="M83.521,98.872c-0.012,0.46,0.256,0.748,0.72,0.757c0.466,0.009,0.696-0.284,0.757-0.734
		c-0.066-0.448-0.306-0.735-0.773-0.723C83.801,98.184,83.534,98.449,83.521,98.872z"/>
	<path fill="#364D39" d="M90.135,98.171c-0.42,0.019-0.688,0.287-0.694,0.709c-0.006,0.46,0.268,0.745,0.729,0.748
		c0.464,0.003,0.694-0.297,0.747-0.748C90.841,98.436,90.602,98.149,90.135,98.171z"/>
	<path fill="#364D39" d="M209.307,98.887c-0.002-0.426-0.264-0.694-0.689-0.716c-0.461-0.022-0.748,0.246-0.766,0.703
		c-0.021,0.467,0.274,0.704,0.723,0.77C209.024,99.588,209.314,99.354,209.307,98.887z"/>
	<path fill="#364D39" d="M215.23,98.919c0.016-0.426-0.242-0.704-0.658-0.745c-0.461-0.044-0.761,0.221-0.801,0.672
		c-0.041,0.463,0.248,0.713,0.687,0.801C214.912,99.606,215.212,99.382,215.23,98.919z"/>
	<path fill="#364D39" d="M220.432,99.628c0.461-0.003,0.688-0.306,0.732-0.763c-0.086-0.438-0.329-0.722-0.796-0.694
		c-0.422,0.025-0.688,0.296-0.684,0.723C219.69,99.354,219.969,99.634,220.432,99.628z"/>
	<path fill="#364D39" d="M82.02,101.842c-0.003-0.425-0.265-0.697-0.688-0.716c-0.46-0.022-0.75,0.247-0.77,0.704
		c-0.02,0.467,0.274,0.703,0.722,0.77C81.732,102.542,82.023,102.309,82.02,101.842z"/>
	<path fill="#364D39" d="M87.22,102.583c0.464-0.006,0.69-0.305,0.735-0.763c-0.082-0.438-0.328-0.722-0.794-0.694
		c-0.42,0.028-0.685,0.293-0.681,0.722C86.483,102.309,86.759,102.59,87.22,102.583z"/>
	<path fill="#364D39" d="M211.562,102.583c0.426-0.009,0.69-0.274,0.707-0.697c0.016-0.467-0.268-0.706-0.716-0.776
		c-0.454,0.057-0.751,0.284-0.744,0.751C210.812,102.322,211.1,102.594,211.562,102.583z"/>
	<path fill="#364D39" d="M217.464,101.13c-0.46-0.003-0.735,0.277-0.731,0.738c0,0.426,0.265,0.691,0.684,0.715
		c0.468,0.025,0.713-0.258,0.793-0.7C218.158,101.433,217.93,101.13,217.464,101.13z"/>
	<path fill="#364D39" d="M77.601,104.813c-0.004,0.463,0.296,0.694,0.748,0.748c0.444-0.076,0.731-0.318,0.709-0.782
		c-0.02-0.419-0.287-0.688-0.713-0.693C77.888,104.079,77.604,104.353,77.601,104.813z"/>
	<path fill="#364D39" d="M84.237,105.561c0.451-0.057,0.748-0.287,0.742-0.75c-0.008-0.46-0.291-0.731-0.751-0.723
		c-0.426,0.006-0.69,0.275-0.707,0.697C83.501,105.249,83.789,105.485,84.237,105.561z"/>
	<path fill="#364D39" d="M214.445,105.539c0.461,0.041,0.713-0.25,0.801-0.688c-0.04-0.458-0.264-0.75-0.729-0.77
		c-0.428-0.016-0.706,0.239-0.744,0.656C213.727,105.202,213.992,105.501,214.445,105.539z"/>
	<path fill="#364D39" d="M220.457,104.085c-0.461-0.02-0.75,0.249-0.767,0.709c-0.019,0.463,0.278,0.7,0.726,0.766
		c0.451-0.063,0.735-0.296,0.729-0.763C221.142,104.372,220.879,104.104,220.457,104.085z"/>
	<path fill="#364D39" d="M81.275,108.517c0.448-0.057,0.748-0.287,0.741-0.754c-0.007-0.46-0.29-0.732-0.754-0.722
		c-0.422,0.006-0.69,0.274-0.707,0.697C80.543,108.204,80.831,108.444,81.275,108.517z"/>
	<path fill="#364D39" d="M87.192,107.041c-0.427,0.006-0.694,0.271-0.713,0.69c-0.02,0.461,0.252,0.75,0.709,0.767
		c0.467,0.016,0.703-0.281,0.766-0.729C87.896,107.324,87.659,107.034,87.192,107.041z"/>
	<path fill="#364D39" d="M211.51,107.041c-0.427,0.016-0.695,0.281-0.704,0.704c-0.009,0.46,0.262,0.747,0.722,0.753
		c0.467,0.006,0.697-0.291,0.754-0.741C212.213,107.312,211.973,107.024,211.51,107.041z"/>
	<path fill="#364D39" d="M217.479,108.498c0.427-0.006,0.69-0.274,0.707-0.697c0.019-0.464-0.269-0.704-0.72-0.779
		c-0.447,0.057-0.744,0.287-0.738,0.75C216.734,108.236,217.022,108.507,217.479,108.498z"/>
	<path fill="#364D39" d="M78.294,111.456c0.466,0.019,0.707-0.265,0.783-0.713c-0.057-0.451-0.284-0.75-0.75-0.745
		c-0.461,0.003-0.735,0.288-0.726,0.749C77.607,111.172,77.872,111.437,78.294,111.456z"/>
	<path fill="#364D39" d="M84.215,111.456c0.467,0.019,0.707-0.265,0.782-0.713c-0.054-0.451-0.28-0.75-0.748-0.745
		c-0.46,0.003-0.732,0.288-0.726,0.749C83.527,111.172,83.792,111.437,84.215,111.456z"/>
	<path fill="#364D39" d="M163.865,66.795c0.33-0.23,0.969,0.158,1.053-0.508c-0.126-0.416-0.371-0.678-0.804-0.637
		c-0.42,0.041-0.659,0.306-0.676,0.738C163.43,66.679,163.625,66.963,163.865,66.795z"/>
	<path fill="#364D39" d="M172.625,63.862c0.238-0.123,0.493-0.24,0.732-0.378c0.149-0.083,0.414-0.079,0.363-0.34
		c-0.041-0.199-0.207-0.328-0.394-0.404c-0.269-0.116-0.526-0.066-0.745,0.123c-0.213,0.19-0.314,0.433-0.248,0.716
		C172.365,63.724,172.426,63.856,172.625,63.862z"/>
	<path fill="#364D39" d="M208.601,104.076c-0.289-0.025-0.201,0.129-0.186,0.306c0.042,0.41-0.095,0.961,0.345,1.113
		c0.279,0.097,0.576-0.322,0.547-0.716C209.279,104.35,209.012,104.129,208.601,104.076z"/>
	<path fill="#364D39" d="M223.343,102.594c0-0.509,0-0.976,0-1.508c-0.429,0.145-0.71,0.347-0.696,0.779
		C222.658,102.284,222.904,102.515,223.343,102.594z"/>
	<path fill="#364D39" d="M223.361,126.235c0-0.489,0-0.949,0-1.504c-0.46,0.164-0.741,0.373-0.715,0.804
		C222.672,125.948,222.911,126.188,223.361,126.235z"/>
	<path fill="#364D39" d="M89.987,104.101c-0.3,0.085-0.512,0.293-0.546,0.611c-0.044,0.382,0.129,0.65,0.495,0.783
		c0.249-0.344,0.17-0.77,0.319-1.129C90.397,104.019,90.179,104.047,89.987,104.101z"/>
	<path fill="#364D39" d="M126.976,148.935c-0.23-0.244-0.476-0.505-0.735-0.783c-0.198-0.208-0.457-0.321-0.709-0.476
		c-0.239-0.098-0.482-0.183-0.729-0.262c-0.965-0.265-1.924-0.28-2.92-0.28c-0.997-0.003-2.019,0.091-3.06,0.198
		c-1.047,0.098-2.104,0.252-3.154,0.391c-0.521,0.07-1.066,0.126-1.492,0.155c-0.214,0.006-0.593,0.041-0.751,0.022l-0.804-0.044
		c-2.17-0.107-4.34-0.208-6.375-0.31c-0.517-0.016-1.025-0.031-1.517-0.044c-0.492-0.006-0.969-0.046-1.561,0
		c-1.117,0.067-2.101,0.414-2.924,0.805c-0.833,0.388-1.486,0.896-2.035,1.344c-0.555,0.451-0.972,0.908-1.302,1.283
		c-0.653,0.76-0.943,1.269-0.943,1.269l0.458,0.385c0,0,0.4-0.356,1.18-0.884c0.77-0.521,1.914-1.232,3.342-1.655
		c0.71-0.218,1.485-0.315,2.262-0.277c0.354,0.003,0.846,0.092,1.344,0.158c0.492,0.066,0.996,0.132,1.51,0.199
		c0.653,0.072,1.332,0.147,2.009,0.227c0,0.029-0.006,0.054-0.006,0.079c0,3.027,2.729,5.484,6.094,5.484
		c3.365,0,6.09-2.457,6.09-5.484c0-0.225-0.038-0.438-0.07-0.653c0.65-0.116,1.287-0.227,1.886-0.324
		c0.887-0.132,1.732-0.211,2.395-0.18c0.151,0.019,0.296,0.038,0.438,0.057c0.082,0.044,0.218,0.044,0.287,0.098
		c0.319,0.208,0.619,0.403,0.902,0.586c0.302,0.177,0.536,0.356,0.729,0.53c0.215,0.166,0.41,0.324,0.59,0.463
		c0.347,0.318,0.627,0.564,0.813,0.73c0.177,0.181,0.271,0.279,0.271,0.279l0.35-0.215c0,0-0.202-0.539-0.732-1.403
		C127.806,150.01,127.453,149.382,126.976,148.935z M111.144,151.877c-0.722,0-1.306-0.583-1.306-1.305
		c0-0.72,0.583-1.307,1.306-1.307c0.723,0,1.305,0.587,1.305,1.307C112.449,151.294,111.866,151.877,111.144,151.877z"/>
	<path fill="#364D39" d="M196.711,149.757c-0.521-0.422-1.132-0.902-1.922-1.267c-0.771-0.369-1.699-0.7-2.752-0.761
		c-0.559-0.044-1.007-0.003-1.471,0c-0.467,0.013-0.949,0.028-1.432,0.042c-1.921,0.094-3.968,0.195-6.016,0.293l-0.752,0.041
		c-0.146,0.02-0.506-0.012-0.707-0.019c-0.4-0.028-0.919-0.079-1.403-0.145c-0.987-0.132-1.991-0.277-2.972-0.366
		c-0.983-0.104-1.945-0.193-2.886-0.189c-0.94,0-1.843,0.012-2.75,0.262c-0.237,0.075-0.464,0.154-0.691,0.249
		c-0.239,0.145-0.476,0.252-0.668,0.451c-0.243,0.262-0.478,0.507-0.694,0.738c-0.447,0.422-0.785,1.016-1.06,1.381
		c-0.501,0.816-0.69,1.325-0.69,1.325l0.327,0.198c0,0,0.089-0.091,0.259-0.262c0.178-0.16,0.439-0.395,0.767-0.69
		c0.168-0.132,0.351-0.277,0.556-0.438c0.183-0.164,0.403-0.33,0.688-0.498c0.266-0.173,0.551-0.356,0.852-0.552
		c0.066-0.053,0.195-0.05,0.27-0.094c0.137-0.016,0.272-0.035,0.415-0.054c0.624-0.032,1.422,0.044,2.257,0.17
		c0.565,0.091,1.166,0.196,1.776,0.306c-0.032,0.203-0.065,0.404-0.065,0.615c0,2.855,2.566,5.166,5.74,5.166
		c3.172,0,5.74-2.311,5.74-5.166c0-0.025-0.008-0.051-0.008-0.075c0.638-0.073,1.278-0.146,1.896-0.215
		c0.479-0.063,0.959-0.126,1.416-0.186c0.474-0.063,0.937-0.146,1.269-0.148c0.731-0.035,1.463,0.057,2.132,0.262
		c1.347,0.403,2.429,1.072,3.146,1.563c0.735,0.495,1.115,0.834,1.115,0.834l0.432-0.36c0.002,0-0.275-0.479-0.887-1.196
		C197.622,150.613,197.231,150.18,196.711,149.757z M178.818,151.955c-0.734,0-1.332-0.592-1.332-1.327
		c0-0.731,0.594-1.327,1.332-1.327c0.73,0,1.331,0.596,1.331,1.327C180.149,151.363,179.549,151.955,178.818,151.955z"/>
	<path fill="#364D39" d="M244.609,137.259c-0.016-0.202-0.021-0.441-0.049-0.612l-0.076-0.479l-0.283-1.063
		c-0.786-2.589-1.865-4.952-3.154-7.09c-0.326-0.53-0.637-1.057-1.038-1.564c-0.372-0.496-0.753-1.057-1.116-1.441
		c-0.181-0.209-0.359-0.42-0.537-0.628l-0.264-0.312l-0.067-0.076l-0.034-0.038l-0.016-0.019l-0.086-0.082l-0.246-0.215
		c-0.65-0.574-1.541-0.92-2.34-1.002c-1.614-0.126-2.791,0.359-3.801,0.788c-1.016,0.445-1.86,0.962-2.627,1.464
		c-0.662,0.444-1.256,0.88-1.804,1.299c0.046-7.721,0.025-15.647,0.025-23.793c-0.004-75.743-76.81-78.547-76.81-78.547h-1.867
		c0,0-76.805,2.804-76.805,78.543c0,8.38,0.385,16.518,0.886,24.444c0.035,0.561,0.072,1.116,0.11,1.674
		c-0.463-0.343-0.95-0.696-1.492-1.053c-0.767-0.502-1.609-1.013-2.625-1.457c-1.009-0.426-2.188-0.909-3.8-0.783
		c-0.801,0.08-1.693,0.427-2.343,0.997l-0.246,0.211l-0.085,0.082l-0.016,0.019l-0.031,0.038l-0.066,0.076l-0.265,0.309
		c-0.18,0.205-0.356,0.414-0.536,0.625c-0.363,0.381-0.744,0.94-1.117,1.435c-0.397,0.507-0.712,1.028-1.038,1.558
		c-1.29,2.126-2.366,4.481-3.15,7.058l-0.285,1.058l-0.079,0.479c-0.024,0.167-0.034,0.407-0.046,0.606
		c-0.029,0.804,0.041,1.485,0.155,2.188c0.236,1.388,0.58,2.731,1.028,4.05c0.451,1.319,0.962,2.618,1.653,3.889
		c0.085,0.162,0.17,0.319,0.271,0.476l0.145,0.24l0.102,0.177l0.492,0.899c0.23,0.582,0.492,1.109,0.678,1.766
		c0.798,2.507,1.366,5.201,1.47,7.736c0.051,0.75,0.051,1.328,0.158,2.069l0.167,1.081l0.224,1.004
		c0.31,1.334,0.7,2.607,1.148,3.851c0.215,0.624,0.467,1.237,0.726,1.845c0.274,0.584,0.545,1.16,0.813,1.731
		c0.445,1.034,0.871,2.187,1.24,3.259c0.354,1.078,0.706,2.16,0.867,3.125c0.025,0.215,0.104,0.518,0.088,0.652
		c-0.007,0.067-0.01,0.131-0.003,0.193l0.009,0.094c-0.006,0.096,0.016-0.191-0.013,0.213v0.025v0.049v0.099v0.204l0.044,0.336
		c0.032,0.211,0.075,0.479,0.123,0.633c0.088,0.293,0.163,0.605,0.268,0.875c0.798,2.168,1.92,3.922,3.261,5.354
		c1.334,1.41,3.034,2.422,4.661,2.719c1.312,0.23,2.436,0.158,3.243-0.003c0.224,1.171,0.444,2.339,0.691,3.498
		c2.517,11.85,3.22,23.062,8.881,33.682c4.311,8.083,10.616,15.826,18.281,23.238c0.889,4.129,6.229,23.214,29.029,24.889
		c4.548,0.334,23.607,0.334,28.152,0c19.567-1.435,26.27-15.701,28.342-22.325c8.896-8.188,16.189-16.778,20.999-25.802
		c5.658-10.62,6.365-21.832,8.879-33.682c-0.143-0.022-0.287-0.042-0.433-0.06c0.372-1.594,0.723-3.195,1.044-4.811
		c0.006-0.035,0.012-0.088,0.023-0.139c0.112,0.016,0.22,0.041,0.34,0.057c0.006-0.038,0.016-0.28,0.032-0.694
		c0.636,0.038,1.374,0.011,2.175-0.132c1.631-0.307,3.33-1.314,4.665-2.731c1.341-1.44,2.464-3.2,3.259-5.38
		c0.104-0.271,0.18-0.586,0.268-0.877c0.048-0.158,0.092-0.43,0.123-0.637l0.044-0.338v-0.205l-0.003-0.098v-0.054v-0.025
		c-0.029-0.403-0.007-0.12-0.013-0.208l0.01-0.098c0.003-0.063,0.003-0.127-0.007-0.192c-0.016-0.136,0.066-0.442,0.092-0.659
		c0.158-0.969,0.508-2.053,0.863-3.139c0.37-1.074,0.793-2.236,1.24-3.273c0.268-0.574,0.539-1.151,0.812-1.738
		c0.256-0.611,0.512-1.229,0.727-1.851c0.448-1.249,0.84-2.534,1.146-3.87l0.224-1.01l0.168-1.084
		c0.109-0.748,0.105-1.325,0.156-2.082c0.107-2.545,0.676-5.254,1.475-7.769c0.186-0.659,0.45-1.189,0.68-1.776l0.488-0.901
		l0.103-0.177l0.145-0.239c0.101-0.161,0.192-0.322,0.274-0.48c0.691-1.28,1.201-2.583,1.652-3.907
		c0.445-1.325,0.791-2.672,1.025-4.069C244.566,138.747,244.639,138.066,244.609,137.259z M75.374,100.07
		c0.031-0.712,0.057-1.429,0.104-2.125c0.025-0.414,0.066-0.811,0.098-1.22c0-0.032,0.003-0.067,0.006-0.102
		c0.312-0.101,0.483-0.3,0.517-0.608c0.038-0.331-0.11-0.558-0.406-0.707c0.012-0.154,0.022-0.315,0.037-0.467
		c0.042-0.426,0.095-0.839,0.143-1.255c0.065-0.586,0.129-1.176,0.205-1.75c0.057-0.423,0.123-0.836,0.186-1.252
		c0.083-0.559,0.161-1.117,0.256-1.663c0.069-0.413,0.151-0.82,0.227-1.229c0.098-0.53,0.195-1.069,0.303-1.593
		c0.082-0.401,0.177-0.792,0.262-1.189c0.113-0.517,0.227-1.038,0.35-1.542c0.095-0.388,0.199-0.767,0.3-1.148
		c0.031-0.123,0.066-0.239,0.094-0.359c0.08,0.028,0.17,0.044,0.25,0.041c0.467-0.01,0.704-0.281,0.77-0.723
		c-0.044-0.411-0.281-0.779-0.638-0.719c0.083-0.284,0.17-0.568,0.253-0.849c0.145-0.485,0.29-0.972,0.445-1.444
		c0.117-0.363,0.243-0.716,0.362-1.069c0.162-0.47,0.322-0.943,0.489-1.401c0.129-0.347,0.262-0.688,0.395-1.028
		c0.173-0.458,0.351-0.915,0.533-1.36c0.044-0.11,0.092-0.214,0.136-0.321c0.076,0.022,0.161,0.038,0.23,0.053
		c0.436-0.043,0.723-0.271,0.745-0.741c0.012-0.3-0.174-0.641-0.395-0.653c0.092-0.215,0.186-0.435,0.281-0.646
		c0.145-0.316,0.293-0.628,0.444-0.94c0.202-0.429,0.407-0.857,0.619-1.281c0.151-0.302,0.309-0.596,0.463-0.896
		c0.217-0.419,0.438-0.835,0.662-1.246c0.158-0.287,0.322-0.571,0.479-0.851c0.234-0.407,0.467-0.814,0.707-1.212
		c0.165-0.271,0.331-0.542,0.499-0.81c0.247-0.395,0.492-0.79,0.744-1.177c0.17-0.259,0.341-0.514,0.515-0.769
		c0.167-0.25,0.333-0.492,0.504-0.735c0.032,0,0.062-0.007,0.088-0.024c0.189-0.13,0.281-0.297,0.293-0.521
		c0.139-0.199,0.28-0.394,0.423-0.59c0.271-0.373,0.545-0.744,0.823-1.11c0.177-0.231,0.354-0.461,0.533-0.685
		c0.01-0.012,0.02-0.022,0.025-0.034c0.124,0.079,0.328,0.129,0.502,0.132c0.407-0.079,0.684-0.318,0.668-0.778
		c-0.006-0.196-0.073-0.442-0.227-0.524c0.142-0.173,0.287-0.346,0.431-0.52c0.297-0.354,0.597-0.703,0.903-1.047
		c0.148-0.167,0.296-0.334,0.447-0.501c0.094,0.239,0.375,0.378,0.722,0.419c0.384-0.079,0.694-0.29,0.688-0.76
		c-0.007-0.341-0.182-0.615-0.463-0.684c0.031-0.035,0.06-0.067,0.092-0.098c0.179-0.192,0.362-0.378,0.542-0.568
		c0.325-0.331,0.65-0.662,0.975-0.987c0.132-0.13,0.261-0.255,0.394-0.382c0.053,0.306,0.327,0.508,0.69,0.505
		c0.463-0.003,0.69-0.293,0.748-0.735c-0.051-0.331-0.206-0.612-0.473-0.688c0.066-0.063,0.132-0.123,0.199-0.183
		c0.18-0.167,0.356-0.332,0.536-0.492c0.347-0.315,0.697-0.625,1.05-0.931c0.098-0.085,0.199-0.173,0.3-0.258
		c0.129,0.211,0.328,0.344,0.599,0.333c0.464-0.015,0.694-0.296,0.747-0.703c-0.012-0.249-0.101-0.429-0.242-0.558
		c0.069-0.06,0.138-0.12,0.208-0.177c0.174-0.142,0.344-0.281,0.521-0.419c0.372-0.296,0.744-0.59,1.12-0.876
		c0.123-0.092,0.243-0.187,0.366-0.278c0.054,0.026,0.11,0.041,0.161,0.05c0.436,0.063,0.713-0.211,0.742-0.715
		c0.132-0.099,0.264-0.196,0.397-0.291c0.164-0.117,0.325-0.233,0.489-0.35c0.397-0.281,0.795-0.555,1.195-0.826
		c0.155-0.104,0.309-0.211,0.467-0.316c0.41-0.271,0.82-0.539,1.23-0.8c0.148-0.095,0.296-0.19,0.445-0.281
		c0.422-0.265,0.848-0.527,1.273-0.782c0.136-0.079,0.271-0.164,0.411-0.246c0.435-0.262,0.876-0.514,1.315-0.763
		c0.126-0.069,0.25-0.142,0.378-0.211c0.455-0.255,0.909-0.501,1.36-0.741c0.11-0.06,0.221-0.12,0.332-0.179
		c0.47-0.25,0.942-0.49,1.413-0.726c0.095-0.047,0.19-0.094,0.284-0.142c0.489-0.243,0.979-0.479,1.467-0.712
		c0.072-0.035,0.148-0.069,0.224-0.107c0.512-0.24,1.019-0.474,1.526-0.7c0.007-0.003,0.017-0.007,0.022-0.01
		c0.177,0,0.28-0.047,0.375-0.164c0.455-0.202,0.912-0.398,1.366-0.594c0.021-0.009,0.044-0.019,0.065-0.028
		c2.187-0.918,4.337-1.712,6.425-2.413c0.181,0.246,0.429,0.347,0.741,0.259c0.334-0.095,0.526-0.319,0.54-0.675
		c2.952-0.94,5.75-1.681,8.304-2.255c0.003,0,0.01,0,0.016-0.003c1.826-0.414,3.526-0.742,5.065-1.006
		c-0.022,0.062-0.038,0.132-0.038,0.22c0,0.46,0.246,0.757,0.7,0.779c0.46,0.022,0.738-0.252,0.767-0.712
		c0.012-0.211-0.057-0.369-0.174-0.496c0.58-0.091,1.142-0.177,1.666-0.249c0.006,0,0.012,0,0.018-0.003
		c0.313-0.044,0.619-0.085,0.912-0.123c0.022-0.003,0.044-0.006,0.066-0.006c0.274-0.035,0.539-0.066,0.794-0.098
		c0.032-0.003,0.063-0.006,0.092-0.013c0.239-0.029,0.47-0.053,0.688-0.076c0.038-0.003,0.079-0.006,0.116-0.013
		c0.202-0.022,0.401-0.041,0.587-0.06c0.047-0.006,0.088-0.009,0.132-0.012c0.17-0.016,0.334-0.032,0.488-0.044
		c0.047-0.003,0.092-0.006,0.136-0.013c0.139-0.013,0.274-0.022,0.398-0.031c0.05-0.003,0.101-0.006,0.148-0.01
		c0.104-0.009,0.202-0.015,0.29-0.022c0.057-0.003,0.11-0.009,0.165-0.012c0.065-0.003,0.129-0.007,0.186-0.013
		c0.06-0.002,0.114-0.006,0.164-0.009c0.032,0,0.066-0.003,0.091-0.007c0.061-0.003,0.12-0.006,0.158-0.006
		c0.069-0.003,0.12-0.003,0.12-0.003h1.781c0,0,0.051,0,0.123,0.003c0.039,0.003,0.092,0.003,0.148,0.006
		c0.031,0,0.066,0.003,0.102,0.007c0.047,0.003,0.101,0.006,0.154,0.009c0.061,0.003,0.129,0.01,0.198,0.013
		c0.05,0.003,0.098,0.006,0.155,0.009c0.092,0.007,0.195,0.013,0.303,0.022c0.044,0.003,0.088,0.007,0.136,0.01
		c0.126,0.009,0.261,0.022,0.406,0.035c0.042,0.003,0.082,0.007,0.126,0.01c0.158,0.013,0.328,0.028,0.505,0.047
		c0.042,0.003,0.075,0.006,0.116,0.009c0.189,0.019,0.391,0.038,0.6,0.063c0.035,0.003,0.067,0.006,0.102,0.01
		c0.224,0.025,0.459,0.05,0.709,0.079c0.022,0,0.048,0.003,0.07,0.006c0.262,0.031,0.532,0.066,0.816,0.101
		c0.016,0,0.031,0.003,0.048,0.006c0.784,0.101,1.658,0.224,2.604,0.375c-0.092,0.12-0.136,0.287-0.139,0.455
		c-0.007,0.46,0.258,0.74,0.715,0.753c0.465,0.013,0.701-0.281,0.732-0.526c0.013-0.208-0.01-0.363-0.059-0.477
		c3.695,0.631,8.328,1.646,13.409,3.271c-0.021,0.17,0.072,0.328,0.196,0.454c0.214,0.23,0.489,0.318,0.795,0.195
		c0.113-0.047,0.221-0.107,0.296-0.224c2.076,0.698,4.22,1.485,6.394,2.403c0.019,0.006,0.034,0.013,0.047,0.02
		c0.467,0.195,0.937,0.397,1.402,0.605c0.125,0.111,0.257,0.167,0.408,0.18c0.502,0.224,1,0.454,1.502,0.688
		c0.068,0.035,0.141,0.066,0.211,0.101c0.492,0.234,0.986,0.471,1.482,0.719c0.031,0.016,0.059,0.032,0.088,0.047
		c-0.075-0.025-0.16-0.044-0.262-0.041c-0.426,0.003-0.693,0.268-0.716,0.688c-0.022,0.46,0.245,0.751,0.707,0.77
		c0.464,0.02,0.706-0.274,0.769-0.722c-0.037-0.282-0.154-0.493-0.344-0.612c0.01,0.003,0.016,0.007,0.025,0.013
		c0.474,0.239,0.953,0.482,1.426,0.732c0.104,0.057,0.212,0.116,0.319,0.173c0.46,0.246,0.917,0.492,1.378,0.75
		c0.123,0.067,0.242,0.136,0.361,0.206c0.445,0.252,0.887,0.508,1.328,0.77c0.133,0.078,0.266,0.161,0.402,0.239
		c0.428,0.259,0.854,0.521,1.283,0.789c0.141,0.091,0.287,0.183,0.432,0.275c0.416,0.265,0.833,0.533,1.244,0.81
		c0.155,0.101,0.307,0.205,0.459,0.309c0.404,0.271,0.808,0.549,1.208,0.833c0.161,0.114,0.317,0.23,0.476,0.344
		c0.137,0.098,0.271,0.202,0.41,0.303c0.066,0.571,0.288,0.713,0.874,0.646c0.127,0.095,0.253,0.193,0.378,0.287
		c0.379,0.291,0.754,0.583,1.129,0.88c0.171,0.136,0.341,0.278,0.516,0.417c0.078,0.066,0.156,0.132,0.235,0.199
		c-0.228,0.217-0.3,0.495-0.164,0.785c0.159,0.34,0.442,0.523,0.831,0.448c0.194-0.039,0.343-0.142,0.45-0.297
		c0.085,0.076,0.176,0.151,0.262,0.228c0.353,0.306,0.706,0.615,1.056,0.934c0.178,0.16,0.351,0.324,0.531,0.488
		c0.066,0.066,0.139,0.132,0.204,0.196c-0.229,0.053-0.41,0.334-0.423,0.627c-0.021,0.46,0.23,0.738,0.682,0.789
		c0.348,0.038,0.567-0.154,0.729-0.473c0.12,0.116,0.24,0.233,0.359,0.35c0.328,0.328,0.656,0.656,0.98,0.994
		c0.181,0.187,0.36,0.373,0.541,0.562c0.041,0.041,0.075,0.085,0.115,0.126c-0.256,0.041-0.454,0.332-0.451,0.653
		c0.006,0.461,0.285,0.694,0.707,0.76c0.312-0.022,0.605-0.164,0.697-0.378c0.139,0.154,0.277,0.306,0.413,0.464
		c0.303,0.344,0.603,0.693,0.905,1.05c0.154,0.183,0.31,0.369,0.46,0.552c-0.085,0.061-0.147,0.189-0.198,0.337
		c-0.098,0.312,0.02,0.584,0.281,0.777c0.277,0.201,0.548,0.195,0.822,0.012c0.014,0.016,0.025,0.031,0.038,0.044
		c0.177,0.225,0.354,0.452,0.526,0.682c0.281,0.369,0.555,0.741,0.83,1.116c0.158,0.214,0.315,0.432,0.467,0.653
		c0.013,0.18,0.113,0.329,0.312,0.451c0.181,0.255,0.354,0.511,0.53,0.766c0.171,0.255,0.342,0.508,0.508,0.767
		c0.252,0.392,0.502,0.785,0.747,1.183c0.169,0.265,0.331,0.533,0.492,0.804c0.239,0.398,0.477,0.808,0.71,1.218
		c0.161,0.281,0.324,0.562,0.479,0.848c0.224,0.41,0.444,0.83,0.665,1.249c0.154,0.297,0.31,0.593,0.461,0.893
		c0.211,0.422,0.416,0.854,0.621,1.283c0.148,0.312,0.3,0.625,0.442,0.937c0.104,0.227,0.201,0.46,0.303,0.69
		c-0.058,0.022-0.104,0.042-0.14,0.072c-0.232,0.228-0.318,0.505-0.183,0.801c0.142,0.315,0.395,0.495,0.761,0.46
		c0.047-0.003,0.084-0.015,0.122-0.034c0.044,0.104,0.089,0.208,0.132,0.312c0.184,0.449,0.357,0.905,0.535,1.363
		c0.128,0.338,0.264,0.678,0.391,1.025c0.17,0.46,0.327,0.934,0.488,1.403c0.123,0.354,0.246,0.708,0.362,1.066
		c0.154,0.477,0.297,0.962,0.444,1.448c0.082,0.277,0.172,0.561,0.252,0.841c-0.019,0-0.033-0.005-0.059,0.003
		c-0.385,0.158-0.604,0.442-0.508,0.854c0.092,0.401,0.379,0.612,0.811,0.584c0.062-0.003,0.101-0.028,0.136-0.06
		c0.034,0.126,0.065,0.252,0.098,0.378c0.101,0.382,0.201,0.76,0.299,1.148c0.124,0.508,0.237,1.028,0.354,1.545
		c0.084,0.397,0.179,0.789,0.26,1.186c0.108,0.527,0.203,1.066,0.305,1.599c0.075,0.41,0.157,0.811,0.223,1.227
		c0.092,0.546,0.174,1.107,0.256,1.663c0.063,0.416,0.129,0.829,0.189,1.251c0.076,0.575,0.139,1.167,0.201,1.751
		c0.049,0.419,0.102,0.832,0.146,1.255c0.016,0.173,0.029,0.356,0.044,0.533c-0.517,0.476-0.514,0.813,0.095,1.169
		c0.004,0.061,0.011,0.12,0.017,0.18c0.03,0.41,0.069,0.808,0.098,1.22c0.045,0.697,0.068,1.414,0.101,2.126
		c0.017,0.359,0.04,0.713,0.054,1.072c0.031,1.084,0.051,2.182,0.051,3.296c0,0.886,0,1.763,0,2.646
		c-0.032-0.013-0.07-0.026-0.123-0.029c-0.407-0.032-0.66,0.293-0.664,0.719c-0.002,0.395,0.241,0.704,0.606,0.704
		c0.079,0,0.136-0.014,0.181-0.032c0.003,1.526,0,3.043,0,4.554c-0.038-0.013-0.082-0.025-0.145-0.028
		c-0.405-0.022-0.654,0.315-0.643,0.738c0.014,0.391,0.257,0.688,0.632,0.681c0.067,0,0.117-0.01,0.155-0.022
		c0,1.523-0.004,3.038-0.006,4.545c-0.035-0.013-0.07-0.025-0.127-0.032c-0.403-0.038-0.656,0.3-0.654,0.726
		c0.004,0.391,0.244,0.685,0.617,0.697c0.068,0,0.119-0.003,0.16-0.016c-0.007,2.646-0.02,5.277-0.038,7.878l-9.507,16.017
		l-0.582,0.104c-0.076-0.63-0.154-1.176-0.222-1.608c-0.618-3.924-4.009-6.324-8.21-7.784c3.095-0.725,6.012-0.656,8.658,1.23
		c0,0-0.986-11.304-8.064-12.632c-4.418-0.83-8.273,5.409-16.83,6.785c-8.56,1.378-30.514,0.792-32.242,9.531l0.009,2.943
		c-0.003,0.012-0.003,0.025-0.007,0.038c-0.01,0.044-0.02,0.095-0.027,0.155c-0.014,0.069-0.038,0.217-0.07,0.328
		c-0.06-0.017-0.145-0.048-0.262-0.105c-0.158-0.072-3.863-1.794-7.708-1.794c-3.848,0-7.519,1.722-7.677,1.797
		c-0.048,0.022-0.085,0.039-0.123,0.054l0.098-2.848c-1.45-8.746-23.298-8.979-31.77-10.66c-8.468-1.685-12.108-8.027-16.523-7.365
		c-7.074,1.057-8.405,12.25-8.405,12.25c3.15-2.082,6.604-1.669,10.244-0.404c-5.229,1.347-9.828,3.854-10.557,8.491
		c0,0.013-0.003,0.028-0.006,0.044l-0.195-0.042l-7.226-14.079c-0.066-0.962-0.126-1.921-0.187-2.886
		c0.022,0.016,0.044,0.032,0.073,0.048c0.037-0.259,0.05-0.473-0.111-0.657c-0.101-1.64-0.192-3.286-0.274-4.945
		c0.571-0.422,0.555-0.76-0.06-1.239c-0.069-1.501-0.132-3.012-0.186-4.529c0.404-0.104,0.641-0.328,0.653-0.738
		c0.007-0.328-0.186-0.545-0.464-0.678c-0.065-0.031-0.157-0.044-0.237-0.044c-0.043-1.495-0.079-3-0.101-4.507
		c0.041,0.016,0.095,0.028,0.165,0.031c0.372,0.02,0.618-0.29,0.63-0.678c0.016-0.426-0.23-0.747-0.64-0.744
		c-0.082,0-0.133,0.019-0.173,0.041c-0.009-0.882-0.016-1.769-0.016-2.659c0-0.646,0.019-1.274,0.031-1.908
		c0.038,0.016,0.085,0.029,0.151,0.035c0.404,0.025,0.656-0.309,0.646-0.731c-0.006-0.395-0.249-0.684-0.625-0.688
		c-0.066,0-0.113,0.006-0.151,0.016c0-0.003,0-0.009,0-0.016C75.336,100.783,75.359,100.432,75.374,100.07z M205.777,168.287
		c-2.373,3.227-5.715,5.188-9.931,5.818c-4.79,0.723-9.046,1.089-12.654,1.089c-7.665,0-11.24-1.631-13.265-2.851
		c-3.757-2.271-13.459-13.574-10.094-28.131c1.605-0.634,3.794-1.365,6.648-2.031c7.009-1.63,15.66-1.183,20.467-1.571
		c4.098-0.328,8.206-2.173,12.146-3.76c5.012,0.965,9.83,2.921,10.448,6.857C210.131,147.468,211.604,160.355,205.777,168.287z
		 M126.762,172.34c-2.025,1.224-5.602,2.852-13.269,2.852c-3.605,0-7.864-0.366-12.654-1.088c-4.214-0.631-7.558-2.59-9.932-5.822
		c-5.829-7.93-4.353-20.816-3.763-24.579c0.703-4.488,6.869-6.399,12.549-7.21c3.422,1.542,6.955,3.119,10.516,3.542
		c4.769,0.562,13.388,0.442,20.305,2.318c2.737,0.741,4.851,1.523,6.415,2.205C140.062,158.947,130.49,170.089,126.762,172.34z
		 M175.043,243.336c-2.668,2.35-4.549,2.662-8.318-4.545c-3.594-6.879-31.15-6.879-34.743,0c-3.766,7.207-5.649,6.896-8.317,4.545
		c-2.668-2.354-10.042-8.169-4.236-16.943c0,0,12.396-2.508,18.514-2.192c1.953,0.098,20.87,0.098,22.819,0
		c6.118-0.315,18.518,2.192,18.518,2.192C185.088,235.167,177.711,240.982,175.043,243.336z M221.285,189.182l0.004-0.012
		c0.099,0.012,0.199,0.018,0.3,0.027C221.484,189.191,221.388,189.191,221.285,189.182z M242.381,139.179
		c-0.121,1.233-0.42,2.498-0.805,3.747c-0.395,1.243-0.852,2.499-1.436,3.636c-0.068,0.142-0.145,0.288-0.223,0.417l-0.115,0.202
		l-0.087,0.158l-0.061,0.114l-0.47,0.914c-0.274,0.69-0.586,1.413-0.779,2.075c-0.867,2.709-1.461,5.426-1.6,8.285
		c-0.047,0.591-0.057,1.37-0.182,1.938l-0.172,0.893l-0.242,0.931c-0.324,1.232-0.738,2.444-1.201,3.608
		c-0.225,0.586-0.471,1.141-0.723,1.688c-0.293,0.545-0.586,1.084-0.87,1.618c-0.605,1.206-1.079,2.299-1.546,3.428
		c-0.457,1.133-0.861,2.221-1.189,3.419c-0.068,0.328-0.174,0.555-0.211,0.961c-0.02,0.209-0.031,0.418-0.041,0.621l-0.006,0.312
		c-0.006-0.074,0.012,0.225-0.017-0.163l-0.003,0.025l-0.002,0.054l-0.008,0.098l-0.018,0.198l-0.045,0.051
		c-0.031,0.05-0.025,0.04-0.062,0.135c-0.086,0.199-0.146,0.392-0.247,0.593c-0.737,1.645-1.886,3.006-2.938,3.886
		c-1.069,0.909-2.113,1.241-2.867,1.249c-0.6-0.006-1.069-0.123-1.436-0.271c0.18-7.271,0.458-19.665,0.506-19.939l-0.213,1.161
		l-4.141,22.775c-2.514,13.484-3.469,26.135-10.001,37.979c-4.081,7.396-10.03,14.477-17.163,21.249
		c-0.329-0.868-0.765-1.837-1.348-2.788c-1.729-2.823-1.102-8.466-2.198-11.439c-1.102-2.977,0.315-7.368,0.315-7.368h1.886
		l-0.47-3.134c0,0-3.791-12.58-10.2-14.887c-0.553-0.2-1.101-0.376-1.653-0.565c-0.631-0.215-1.268-0.433-1.898-0.628
		c-6.588-2.069-12.902-3.224-18.782-3.757c1.786-1.815,5.52-0.107,7.669-1.18c2.217-1.106,2.979-4.938,2.979-4.938
		c0.562-2.787-0.657-5.334-1.438-6.623c0.423,0.375,1.014,0.889,1.716,1.511c0.362,0.323,0.741,0.681,1.161,1.03
		c0.406,0.373,0.816,0.78,1.268,1.161c0.429,0.413,0.871,0.836,1.318,1.265c0.436,0.441,0.867,0.896,1.318,1.334
		c0.332,0.369,0.891,0.969,1.17,1.385c0.345,0.43,0.697,0.95,1.035,1.429c0.338,0.499,0.672,0.972,1.006,1.433
		c0.322,0.459,0.644,0.893,0.969,1.279c0.303,0.398,0.611,0.742,0.901,1.038c0.274,0.304,0.536,0.549,0.767,0.735
		c0.453,0.385,0.723,0.584,0.723,0.584s-0.123-0.325-0.363-0.85c-0.246-0.518-0.542-1.277-0.924-2.17
		c-0.371-0.889-0.808-1.949-1.363-3.072c-0.303-0.559-0.592-1.125-1.01-1.728c-0.194-0.313-0.402-0.593-0.607-0.833l-0.307-0.375
		l-0.158-0.189c-0.131-0.15-0.138-0.145-0.213-0.221c-0.48-0.479-0.965-0.949-1.451-1.397c-0.518-0.413-1.025-0.819-1.52-1.215
		c-0.506-0.374-1.029-0.689-1.509-1.008c-0.482-0.31-0.975-0.556-1.407-0.798c-0.898-0.461-1.67-0.773-2.229-0.972
		c-0.562-0.196-0.891-0.246-0.891-0.246s0.055,0.192,0.205,0.432c0.537,1.206,1.843,4.661,0.385,7.156
		c-1.787,3.065-1.876,3.065-3.838,2.384c-1.959-0.681-5.799,0.427-7.333,2.645c-0.199,0.285-0.433,0.552-0.684,0.804
		c-1.556,1.548-3.983,2.36-6.227,2.347l0,0c-0.085,0.004-0.17-0.004-0.255,0c-0.085-0.004-0.174,0.004-0.255,0l0,0
		c-2.183,0.014-4.539-0.76-6.097-2.236c-0.303-0.284-0.58-0.584-0.813-0.914c-1.533-2.218-5.371-3.325-7.333-2.645
		c-1.961,0.682-2.047,0.682-3.838-2.384c-1.536-2.628-0.034-6.373,0.422-7.396c0.092-0.161,0.13-0.271,0.13-0.271
		s-0.347,0.031-0.912,0.222c-0.555,0.198-1.331,0.514-2.227,0.971c-0.436,0.245-0.924,0.492-1.41,0.798
		c-0.476,0.324-1,0.637-1.507,1.012c-0.492,0.393-1.002,0.799-1.521,1.211c-0.489,0.452-0.971,0.925-1.451,1.398
		c-0.073,0.076-0.082,0.07-0.214,0.221l-0.158,0.189l-0.309,0.378c-0.205,0.233-0.41,0.521-0.606,0.83
		c-0.419,0.599-0.709,1.173-1.009,1.731c-0.555,1.119-0.991,2.176-1.363,3.072c-0.381,0.889-0.678,1.646-0.924,2.166
		c-0.237,0.523-0.366,0.848-0.366,0.848s0.271-0.199,0.722-0.582c0.234-0.189,0.493-0.436,0.767-0.735
		c0.287-0.297,0.603-0.641,0.902-1.034c0.325-0.391,0.647-0.824,0.968-1.285c0.334-0.459,0.669-0.933,1.006-1.428
		c0.341-0.482,0.688-1.001,1.035-1.433c0.281-0.419,0.839-1.017,1.173-1.384c0.451-0.439,0.882-0.891,1.318-1.334
		c0.448-0.432,0.89-0.854,1.316-1.262c0.454-0.385,0.861-0.795,1.267-1.164c0.42-0.351,0.798-0.709,1.161-1.031
		c0.463-0.407,0.867-0.763,1.221-1.072c-1.662,2.659-0.883,6.286-0.883,6.286s0.767,3.835,2.984,4.938
		c2.204,1.104,6.097-0.744,7.816,1.335c-9.955,1.081-16.982,3.491-19.401,4.418c-0.602,0.229-0.937,0.376-0.937,0.376
		c-0.312,0.246-0.631,0.511-0.95,0.788c-5.103,4.428-9.25,14.099-9.25,14.099l-0.47,3.135h1.879c0,0,1.417,4.391,0.316,7.367
		c-1.098,2.975-0.47,8.617-2.195,11.441c-0.287,0.466-0.536,0.938-0.757,1.398c-6.497-6.352-11.925-12.969-15.726-19.863
		c-6.532-11.844-7.488-24.494-9.998-37.979l-4.141-22.775l-0.214-1.161c0.057,0.3,0.382,15.124,0.555,21.849
		c-0.091,0.047-0.258,0.128-0.508,0.268c-0.394,0.202-0.956,0.394-1.722,0.396c-0.754-0.005-1.798-0.337-2.867-1.241
		c-1.051-0.877-2.198-2.234-2.939-3.871c-0.101-0.201-0.158-0.394-0.247-0.593c-0.035-0.091-0.028-0.085-0.06-0.128l-0.044-0.055
		l-0.016-0.195l-0.006-0.102l-0.002-0.049v-0.025c-0.029,0.384-0.007,0.081-0.013,0.16l-0.007-0.31
		c-0.006-0.201-0.022-0.413-0.041-0.614c-0.041-0.41-0.138-0.634-0.211-0.962c-0.328-1.192-0.731-2.277-1.189-3.401
		c-0.467-1.125-0.939-2.213-1.548-3.414c-0.287-0.531-0.578-1.066-0.871-1.609c-0.253-0.545-0.501-1.1-0.726-1.682
		c-0.459-1.154-0.876-2.361-1.202-3.592l-0.24-0.927l-0.17-0.887c-0.129-0.567-0.135-1.343-0.179-1.93
		c-0.139-2.845-0.732-5.548-1.6-8.248c-0.195-0.659-0.508-1.379-0.779-2.065l-0.47-0.909l-0.06-0.114l-0.089-0.158l-0.117-0.202
		c-0.079-0.132-0.151-0.274-0.224-0.416c-0.583-1.136-1.044-2.385-1.432-3.621c-0.388-1.239-0.684-2.501-0.807-3.728
		c-0.069-0.599-0.085-1.236-0.041-1.729c0.019-0.125,0.009-0.211,0.041-0.365l0.094-0.436l0.006-0.022l0.019-0.054l0.039-0.107
		l0.068-0.214l0.146-0.432c0.804-2.299,1.993-4.409,3.302-6.191c0.328-0.451,0.653-0.896,0.994-1.259
		c0.356-0.385,0.615-0.759,1.057-1.141c0.199-0.19,0.4-0.376,0.603-0.562l0.296-0.277l0.073-0.069l0.037-0.035l0.02-0.016
		c-0.111,0.11-0.026,0.025-0.048,0.051l0.069-0.035c0.18-0.101,0.319-0.123,0.54-0.12c0.461,0.025,1.18,0.303,1.83,0.709
		c0.653,0.403,1.277,0.905,1.841,1.403c1.145,0.997,2.061,2.038,2.791,2.899c0.739,0.861,1.259,1.592,1.615,2.081
		c0,0,1.218,1.767,2.006,4.574l0.786-5.217l5.873,11.342l1.472,0.154c-0.507,6.155-0.391,16.546,4.832,23.65
		c2.854,3.884,6.854,6.239,11.888,6.991c5.179,0.777,9.79,1.172,13.713,1.172c6.573,0,11.383-1.053,15.129-3.317
		c2.732-1.65,6.92-6.224,9.667-12.478c-0.013,0.879-0.029,1.77-0.044,2.656c-0.218,9.566-0.439,19.129-0.439,19.129
		s0.918-9.522,1.83-19.047c0.653-6.425,1.309-12.844,1.662-16.344c0.536-1.281,2.151-3.665,6.772-3.983h0.167
		c4.569,0.312,6.288,2.599,6.9,3.901c0.354,3.479,1.013,9.954,1.668,16.427c0.918,9.527,1.833,19.047,1.833,19.047
		s-0.218-9.562-0.438-19.129c-0.017-0.935-0.033-1.865-0.051-2.789c2.75,6.324,6.977,10.948,9.727,12.61
		c3.746,2.265,8.553,3.317,15.133,3.317l0,0c3.92,0,8.534-0.395,13.713-1.172c5.033-0.752,9.03-3.104,11.887-6.991
		c4.808-6.537,5.293-15.851,4.94-22.093l1.945-0.176l7.7-12.865l-0.496,5.084c0,0,2.065-3.933,3.658-6.254l0.014,0.009
		c0,0,0.18-0.256,0.51-0.738c0.354-0.492,0.877-1.227,1.615-2.095c0.732-0.864,1.646-1.911,2.792-2.912
		c0.567-0.501,1.188-1.005,1.845-1.409c0.646-0.407,1.372-0.685,1.83-0.713c0.223-0.003,0.359,0.016,0.537,0.12l0.07,0.035
		c-0.021-0.025,0.066,0.056-0.047-0.054l0.02,0.017l0.037,0.031l0.072,0.07l0.297,0.277c0.198,0.187,0.4,0.375,0.602,0.564
		c0.445,0.385,0.701,0.761,1.058,1.148c0.344,0.365,0.669,0.814,0.993,1.265c1.312,1.792,2.498,3.914,3.306,6.22l0.146,0.432
		l0.065,0.215l0.042,0.107l0.016,0.053l0.009,0.022l0.095,0.438c0.032,0.154,0.021,0.243,0.041,0.366
		C242.465,137.94,242.451,138.58,242.381,139.179z"/>
	<path fill="#364D39" d="M234.236,132.966c-2.873,2.024-7.404,7.837-7.404,11.376c0,3.542-0.843,8.55,0.865,9.143
		c1.865,0.646,2.988,5.624,1.805,6.636c-1.178,1.014-2.699,4.217-2.365,6.409c0.338,2.192-0.412,4.798,0.474,4.28
		c2.038-1.184,1.085-4.986,2.267-5.662c1.184-0.674,6.816-9.776,2.878-13.322c-2.548-2.296-2.826-5.506-2.259-8.33
		c2.621-3.289,5.936,0.162,5.936,0.162c-1.265-2.82-3.763-3.343-4.863-3.435c0.457-0.981,0.956-1.788,1.387-2.299
		c1.582-1.855,3.638-4.457,7.356,1.615C240.318,139.545,237.107,130.944,234.236,132.966z"/>
	<path fill="#364D39" d="M99.575,200.231l-1.41-0.415c-0.463-0.158-0.924-0.334-1.391-0.504c-0.477-0.163-0.928-0.363-1.388-0.568
		c-0.46-0.197-0.924-0.4-1.372-0.633c-0.915-0.441-1.798-0.934-2.669-1.489c0.599,0.833,1.256,1.644,1.962,2.416
		c0.344,0.397,0.713,0.77,1.085,1.142c0.369,0.375,0.741,0.754,1.142,1.104c0.395,0.354,0.789,0.717,1.195,1.066L98,203.346
		c0.458,0.369,0.94,0.697,1.435,1.016l4.164,23.428l0.28-24.947l0.013-1.142l-1.508-0.849
		C101.467,200.646,100.502,200.521,99.575,200.231z"/>
	<path fill="#364D39" d="M204.337,198.744c-0.457,0.202-0.911,0.405-1.384,0.568c-0.467,0.17-0.932,0.346-1.392,0.504l-1.409,0.415
		c-0.925,0.289-1.896,0.415-2.808,0.62l-1.511,0.849l0.013,1.142l0.286,24.947l4.16-23.428c0.492-0.321,0.981-0.646,1.436-1.016
		l1.269-0.996c0.407-0.35,0.804-0.713,1.198-1.066c0.397-0.346,0.772-0.725,1.139-1.104c0.371-0.372,0.738-0.744,1.085-1.142
		c0.699-0.771,1.362-1.583,1.958-2.416c-0.867,0.556-1.754,1.048-2.668,1.489C205.264,198.344,204.801,198.547,204.337,198.744z
		 M199.004,205.207L199.004,205.207L199.004,205.207L199.004,205.207z"/>
	<path fill="#364D39" d="M72.444,153.488c1.709-0.592,0.87-5.601,0.87-9.143c0-3.542-4.535-9.351-7.405-11.376
		c-2.87-2.025-6.082,6.579-6.082,6.579c3.713-6.072,5.775-3.472,7.355-1.615c0.436,0.514,0.934,1.318,1.389,2.299
		c-1.101,0.091-3.599,0.619-4.864,3.435c0,0,3.315-3.451,5.933-0.161c0.568,2.823,0.29,6.034-2.255,8.33
		c-3.94,3.545,1.693,12.648,2.875,13.323c1.183,0.674,0.231,4.479,2.268,5.66c0.887,0.514,0.133-2.087,0.47-4.28
		c0.338-2.191-1.183-5.396-2.365-6.408C69.457,159.112,70.58,154.135,72.444,153.488z"/>
	<path fill="#364D39" d="M102.246,118.335c1.375,0.233,3.05,0.514,4.975,0.798c1.923,0.29,4.097,0.602,6.472,0.898
		c2.374,0.31,4.952,0.615,7.686,0.896c1.362,0.135,2.77,0.274,4.205,0.416c1.435,0.132,2.901,0.258,4.396,0.369
		c1.492,0.114,3.009,0.23,4.548,0.328c0.77,0.051,1.542,0.101,2.321,0.155c0.779,0.038,1.562,0.079,2.343,0.12
		c3.145,0.158,6.337,0.268,9.535,0.354c3.198,0.047,6.393,0.069,9.542,0.035c1.574-0.019,3.135-0.038,4.673-0.101
		c1.544-0.051,3.069-0.102,4.563-0.181c1.503-0.069,2.973-0.135,4.406-0.252c1.442-0.101,2.848-0.202,4.221-0.331
		c2.737-0.224,5.32-0.53,7.696-0.833c1.189-0.164,2.326-0.319,3.409-0.467c1.078-0.177,2.104-0.347,3.065-0.508
		c0.962-0.148,1.854-0.321,2.685-0.485c0.826-0.165,1.583-0.316,2.27-0.451c1.369-0.291,2.433-0.559,3.164-0.723
		c0.729-0.17,1.117-0.262,1.117-0.262s-1.577,0.225-4.34,0.619c-0.695,0.085-1.457,0.18-2.294,0.281
		c-0.835,0.101-1.734,0.227-2.696,0.315c-0.969,0.101-1.996,0.205-3.078,0.321c-1.082,0.095-2.22,0.192-3.409,0.296
		c-1.187,0.114-2.433,0.17-3.712,0.265c-1.285,0.098-2.608,0.167-3.975,0.24c-1.366,0.085-2.77,0.139-4.201,0.189
		c-0.719,0.028-1.441,0.054-2.173,0.082c-0.729,0.019-1.47,0.041-2.212,0.062c-2.979,0.095-6.064,0.099-9.193,0.117
		c-3.129,0.016-6.307-0.032-9.49-0.098c-3.182-0.065-6.361-0.151-9.49-0.29c-3.129-0.139-6.21-0.262-9.188-0.439
		c-2.977-0.176-5.857-0.344-8.591-0.533c-1.365-0.097-2.693-0.195-3.974-0.289c-1.284-0.099-2.527-0.193-3.716-0.281
		c-4.762-0.382-8.733-0.738-11.511-1c-1.389-0.132-2.483-0.24-3.225-0.312c-0.744-0.076-1.138-0.12-1.138-0.12
		s0.391,0.076,1.126,0.221C99.789,117.89,100.868,118.102,102.246,118.335z"/>
	<path fill="#364D39" d="M110.327,112.112c0,0,0.296,0.06,0.852,0.165c0.555,0.104,1.372,0.262,2.412,0.435
		c2.083,0.363,5.062,0.826,8.655,1.287c1.795,0.221,3.744,0.476,5.81,0.671c1.031,0.104,2.094,0.212,3.175,0.322
		c1.085,0.088,2.195,0.18,3.325,0.271c1.129,0.092,2.277,0.186,3.438,0.25c1.164,0.075,2.34,0.145,3.529,0.208
		c2.375,0.12,4.791,0.183,7.208,0.271c1.208,0.006,2.415,0.016,3.62,0.022c1.205,0,2.403,0.038,3.596,0
		c1.189-0.029,2.365-0.057,3.532-0.082c0.583-0.017,1.161-0.032,1.739-0.048c0.572-0.012,1.145-0.06,1.712-0.088
		c1.129-0.066,2.245-0.132,3.333-0.195c0.543-0.035,1.082-0.066,1.615-0.101c0.533-0.038,1.057-0.1,1.57-0.148
		c2.068-0.211,4.025-0.379,5.825-0.622c1.792-0.258,3.438-0.514,4.893-0.738c0.726-0.101,1.403-0.243,2.024-0.376
		c0.625-0.131,1.199-0.252,1.716-0.362c2.06-0.447,3.239-0.707,3.239-0.707s-1.195,0.155-3.287,0.429
		c-0.522,0.07-1.1,0.152-1.73,0.237c-0.629,0.085-1.307,0.192-2.039,0.247c-1.459,0.132-3.105,0.284-4.9,0.463
		c-0.223,0.022-0.451,0.044-0.681,0.067c-0.229,0.012-0.46,0.025-0.697,0.041c-0.467,0.025-0.946,0.053-1.429,0.082
		c-0.975,0.063-1.975,0.126-3.006,0.189c-0.515,0.028-1.037,0.076-1.564,0.095c-0.529,0.016-1.068,0.031-1.608,0.047
		c-1.085,0.038-2.192,0.073-3.317,0.114c-0.565,0.015-1.129,0.05-1.703,0.053c-0.574,0.003-1.148,0.007-1.732,0.01
		c-1.154,0.009-2.331,0.022-3.51,0.031c-1.187,0.032-2.378-0.015-3.573-0.022c-1.199-0.016-2.4-0.031-3.603-0.047
		c-2.403-0.073-4.806-0.12-7.171-0.221c-2.366-0.133-4.693-0.18-6.945-0.334c-1.126-0.067-2.233-0.129-3.318-0.192
		c-1.085-0.072-2.144-0.142-3.176-0.211c-2.065-0.132-4.015-0.296-5.815-0.426c-1.801-0.148-3.451-0.287-4.914-0.41
		c-1.46-0.132-2.735-0.252-3.788-0.347c-1.05-0.097-1.874-0.18-2.438-0.233C110.629,112.144,110.327,112.112,110.327,112.112z"/>
</g>
</svg>
