<?xml version="1.0" encoding="utf-8"?>
<!-- Generator: Adobe Illustrator 16.0.0, SVG Export Plug-In . SVG Version: 6.00 Build 0)  -->
<!DOCTYPE svg PUBLIC "-//W3C//DTD SVG 1.1//EN" "http://www.w3.org/Graphics/SVG/1.1/DTD/svg11.dtd">
<svg version="1.1" id="Capa_1" xmlns="http://www.w3.org/2000/svg" xmlns:xlink="http://www.w3.org/1999/xlink" x="0px" y="0px"
	 width="300px" height="300px" viewBox="0 0 300 300" enable-background="new 0 0 300 300" xml:space="preserve">
<g>
	<g>
		<circle fill="#364D39" cx="149.712" cy="203.392" r="8.021"/>
		<circle fill="#364D39" cx="149.712" cy="246.172" r="8.021"/>
		<circle fill="#364D39" cx="131.218" cy="214.071" r="8.021"/>
		<circle fill="#364D39" cx="168.265" cy="235.461" r="8.021"/>
		<circle fill="#364D39" cx="131.218" cy="235.426" r="8.021"/>
		<circle fill="#364D39" cx="168.265" cy="214.037" r="8.021"/>
		<circle fill="#364D39" cx="149.712" cy="224.748" r="8.021"/>
		<path fill="#364D39" d="M183.048,72.261h-66.675c-8.622,0-16.502,3.391-22.192,9.548c-5.687,6.158-8.442,14.28-7.764,22.874
			l3.4,42.949c1.383,17.411,16.714,31.579,34.182,31.579h48.916c17.397,0,33.031-14.077,34.855-31.377l4.534-43.073
			c0.906-8.6-1.658-16.737-7.219-22.917C199.524,75.662,191.698,72.261,183.048,72.261z M201.668,103.638l-4.534,43.074
			c-1.246,11.817-12.334,21.801-24.219,21.801h-48.916c-11.815,0-22.585-9.951-23.519-21.727l-3.401-42.948
			c-0.443-5.585,1.318-10.831,4.958-14.772c3.639-3.941,8.732-6.111,14.333-6.111h66.678c5.578,0,10.581,2.147,14.091,6.043
			C200.644,92.895,202.254,98.092,201.668,103.638z"/>
		<path fill="#364D39" d="M237.614,153.222l-7.566,13.107l-8.891-5.134c2.746-7.498,4.754-15.323,5.851-23.291l2.729-19.877
			c3.117-22.691-2.96-44.13-17.117-60.365s-34.568-25.179-57.475-25.179h-10.861c-22.9,0-43.341,8.944-57.552,25.179
			C72.521,73.9,66.364,95.344,69.398,118.044l2.647,19.794c1.045,7.82,2.968,15.499,5.602,22.862l-7.569,4.369l-7.695-13.329
			l-32.42,18.717l38.77,67.148l32.419-18.716l-8.345-14.457l8.639-4.989c2.886,2.954,5.912,5.708,9.097,8.165
			c-2.305,5.251-3.606,11.038-3.606,17.128c0,23.591,19.192,42.78,42.779,42.78c23.588,0,42.779-19.192,42.779-42.78
			c0-6.227-1.368-12.128-3.77-17.471c2.914-2.274,5.695-4.796,8.358-7.491l10.237,5.909l-8.473,14.677l32.419,18.716l38.77-67.148
			L237.614,153.222z M72.642,223.004l-28.074-48.627l13.891-8.021l28.073,48.627L72.642,223.004z M90.122,199.81l-17.376-30.101
			l4.871-2.813l17.38,30.102L90.122,199.81z M149.712,256.832c-17.691,0-32.085-14.393-32.085-32.085
			c0-17.691,14.394-32.085,32.085-32.085c17.692,0,32.085,14.394,32.085,32.085C181.797,242.439,167.404,256.832,149.712,256.832z
			 M183.1,198.074c-7.846-9.802-19.888-16.104-33.388-16.104c-13.639,0-25.777,6.438-33.614,16.408
			c-17.494-13.963-30.144-37.176-33.456-61.948l-2.646-19.793c-2.618-19.599,2.63-38.037,14.779-51.919
			c12.152-13.885,29.732-21.529,49.508-21.529h10.86c19.77,0,37.317,7.639,49.414,21.511c12.093,13.872,17.274,32.296,14.582,51.878
			l-2.73,19.877C213.037,160.989,200.441,184.083,183.1,198.074z M202.949,196.997l17.379-30.102l6.946,4.011l-17.379,30.101
			L202.949,196.997z M227.347,224.479l-13.89-8.021l28.074-48.628l13.89,8.021L227.347,224.479z"/>
	</g>
</g>
</svg>
