<?xml version="1.0" encoding="utf-8"?>
<!-- Generator: Adobe Illustrator 16.0.0, SVG Export Plug-In . SVG Version: 6.00 Build 0)  -->
<!DOCTYPE svg PUBLIC "-//W3C//DTD SVG 1.1//EN" "http://www.w3.org/Graphics/SVG/1.1/DTD/svg11.dtd">
<svg version="1.1" id="Capa_1" xmlns="http://www.w3.org/2000/svg" xmlns:xlink="http://www.w3.org/1999/xlink" x="0px" y="0px"
	 width="300px" height="300px" viewBox="0 0 300 300" enable-background="new 0 0 300 300" xml:space="preserve">
<g>
	<g>
		<path fill="#364D39" d="M182.816,109.156V32.023h-65.107v77.133C87.45,122.1,67.401,152.215,67.401,185.371
			c0,45.689,37.172,82.862,82.862,82.862s82.862-37.173,82.862-82.862C233.125,152.215,213.075,122.1,182.816,109.156z
			 M150.263,256.396c-39.164,0-71.024-31.86-71.024-71.024c0-29.617,18.662-56.402,46.438-66.65l3.871-1.426V43.86h41.431v73.435
			l3.871,1.426c27.775,10.248,46.438,37.036,46.438,66.65C221.287,224.535,189.427,256.396,150.263,256.396z"/>
		<path fill="#364D39" d="M211.797,176.68H88.708c-0.391,2.817-0.592,5.768-0.592,8.694c0,34.323,27.824,62.146,62.146,62.146
			c34.323,0,62.146-27.822,62.146-62.146C212.409,182.397,212.199,179.542,211.797,176.68z"/>
	</g>
</g>
</svg>
